/* XPM */
static char *__xpm_pause[] = {
/* width height num_colors chars_per_pixel */
"    16    16        2            1",
/* colors */
". c none",
"# c #000000",
/* pixels */
"................",
"................",
"..#####..#####..",
"..#####..#####..",
"..#####..#####..",
"..#####..#####..",
"..#####..#####..",
"..#####..#####..",
"..#####..#####..",
"..#####..#####..",
"..#####..#####..",
"..#####..#####..",
"..#####..#####..",
"..#####..#####..",
"................",
"................"
};
