/* XPM */
static char * kcemu_poly880_xpm[] = {
"48 48 65 1",
" 	c None",
".	c #020202",
"+	c #1A9602",
"@	c #3EFECA",
"#	c #2E2E2E",
"$	c #817E7A",
"%	c #7ACECE",
"&	c #72FE5E",
"*	c #D9D6CE",
"=	c #CE7ACE",
"-	c #CEA27A",
";	c #C4C2BB",
">	c #060606",
",	c #4D4C49",
"'	c #12B602",
")	c #CECE7A",
"!	c #96BA22",
"~	c #121212",
"{	c #AAA6A0",
"]	c #5E5E58",
"^	c #1ACE02",
"/	c #CECABE",
"(	c #FEFEFE",
"_	c #8A965A",
":	c #262726",
"<	c #9E6A62",
"[	c #526A66",
"}	c #D1CEC6",
"|	c #A29F98",
"1	c #1A1A1A",
"2	c #CEC6BE",
"3	c #E0DED6",
"4	c #BAB6AF",
"5	c #70706B",
"6	c #8A9A3E",
"7	c #343234",
"8	c #9C948E",
"9	c #9E9A92",
"0	c #222222",
"a	c #0E0E0E",
"b	c #425252",
"c	c #E6E2D6",
"d	c #8E8B82",
"e	c #7E7A75",
"f	c #96968D",
"g	c #5A625A",
"h	c #92837A",
"i	c #1D1E1D",
"j	c #545451",
"k	c #151615",
"l	c #363636",
"m	c #96928D",
"n	c #8E8C86",
"o	c #797472",
"p	c #E6E6DE",
"q	c #8A8662",
"r	c #0A0A0A",
"s	c #6D6863",
"t	c #595A56",
"u	c #3F3E3E",
"v	c #A5766D",
"w	c #B0ADA4",
"x	c #8E8E8E",
"y	c #878380",
"z	c #EEEADE",
"                                                ",
"                                                ",
"                                                ",
"                                                ",
"                                                ",
"                                                ",
"                                                ",
"                                                ",
"       *zzzzzppcc333****}}//22;;;44w9           ",
"      *zzzzzppcc333****}}//22;;;444w{|y         ",
"      zz4iiiiiiiiiii1111kkkkkkkk~~~a$|d         ",
"      zzi:7:::0::0iiiii111kkk~~~~~~aa|m         ",
"      zz:755]jj,,ul#:0i1kkkkkk~~~~aaa9f.        ",
"      zzi#otuuu00:::i111kkkkkk~~~aaaa9m.        ",
"      zpi#sui'''11111111''kk~~~~~aaaafx.        ",
"      ppi:tu0'11'11111111'kk~~~aaaaarmx.        ",
"      cci:jli'11'11''1111'kk'~~'aaarrmd.        ",
"      c3::ju:'''11'11'111'kk'~~'aarrrmd.        ",
"      33i:,#1'1111'11'111'1kk'~'arrrrxy.        ",
"      33iiu#1'11k11''111'''kkk'aarrrrdy..       ",
"      330:l#i111111111111111k'~arrrr>dy..       ",
"      3*ii#01111''111''1111'1kkaarrr>h$..       ",
"      **1i:ik11'11'1'11'11'1'kkaarr>>y$..       ",
"      **1i0:i111''111''111'1'k~arr>>>ye..       ",
"      *}11ikkk1'11'1'11'11'1'r~rr>>>>ye..       ",
"      }}1k1kkk1'11'1'11'11'k'~rr>>>>>$o..       ",
"      }/kkkkkkk1''111''111k'rrr>>>>>.eo..       ",
"      //kkkkkkkk111111111kkrrrr>>>>..eo..       ",
"      /2kkkkkk~kkkkkk111kkrrr>>>>>...oo..       ",
"      22kk:::0:0::i:ll#ii:1i::i:0i0k.oo..       ",
"      2;mk~~~~~~aaaaarrrrrrr>>>>....too..       ",
"      w;4444wwww{{{{|||9fffxxxddyyeooos..       ",
"       fww{{{{||v89n<hmm<vyd$5y_!6o5s]t..       ",
"        [q||998fmmxddxhyyyy$$eeo5sstbb...       ",
"          ...uu,55,]oetse5jt],j..........       ",
"            .,,]]jj]]j]ssj]sst].........        ",
"         t$yxdxddyyyy$$$eoooo55s]],....         ",
"         gxx9mfmmxxdddyyyy$$eeos5jj.            ",
"              ....................              ",
"                 ............                   ",
"                                                ",
"                                                ",
"                                                ",
"                                                ",
"                                                ",
"                                                ",
"                                                ",
"                                                "};
