/* XPM */
static char * kcemu_basickc_xpm[] = {
"48 48 127 2",
"  	c None",
". 	c #D7D6CE",
"+ 	c #EEEADE",
"@ 	c #E6E4DA",
"# 	c #DFDDD5",
"$ 	c #D6D2C6",
"% 	c #D1CEC6",
"& 	c #CECABE",
"* 	c #CEC6BE",
"= 	c #C6C6C0",
"- 	c #C4C0B8",
"; 	c #BAB6AF",
"> 	c #B0ADA4",
", 	c #9E9A92",
"' 	c #AAA6A0",
") 	c #A29F98",
"! 	c #878380",
"~ 	c #1D1E1D",
"{ 	c #1A1A1A",
"] 	c #151615",
"^ 	c #121212",
"/ 	c #0E0E0E",
"( 	c #817E7A",
"_ 	c #8E8B82",
": 	c #262726",
"< 	c #302F30",
"[ 	c #222222",
"} 	c #96928D",
"| 	c #70706B",
"1 	c #5E5E58",
"2 	c #545451",
"3 	c #4D4C49",
"4 	c #414040",
"5 	c #3A3A3A",
"6 	c #96968D",
"7 	c #020202",
"8 	c #797472",
"9 	c #595A56",
"0 	c #6D6863",
"a 	c #8E8E8E",
"b 	c #0A0A0A",
"c 	c #363636",
"d 	c #177217",
"e 	c #176817",
"f 	c #177017",
"g 	c #184318",
"h 	c #192019",
"i 	c #177E17",
"j 	c #193B19",
"k 	c #176C17",
"l 	c #176B17",
"m 	c #192D19",
"n 	c #151915",
"o 	c #155C15",
"p 	c #156815",
"q 	c #146314",
"r 	c #0E190E",
"s 	c #1A6B1A",
"t 	c #191C19",
"u 	c #176917",
"v 	c #183D18",
"w 	c #176717",
"x 	c #176617",
"y 	c #192719",
"z 	c #185A18",
"A 	c #154B15",
"B 	c #153F15",
"C 	c #0F220F",
"D 	c #135413",
"E 	c #176317",
"F 	c #185918",
"G 	c #193019",
"H 	c #185718",
"I 	c #193119",
"J 	c #192119",
"K 	c #166716",
"L 	c #151815",
"M 	c #0E1A0E",
"N 	c #000000",
"O 	c #177717",
"P 	c #184418",
"Q 	c #191A19",
"R 	c #176017",
"S 	c #193619",
"T 	c #186918",
"U 	c #177817",
"V 	c #176E17",
"W 	c #177A17",
"X 	c #192819",
"Y 	c #192B19",
"Z 	c #192919",
"` 	c #151715",
" .	c #113F11",
"..	c #060606",
"+.	c #184B18",
"@.	c #193219",
"#.	c #193C19",
"$.	c #184518",
"%.	c #191D19",
"&.	c #184E18",
"*.	c #153A15",
"=.	c #102C10",
"-.	c #124E12",
";.	c #92837A",
">.	c #167116",
",.	c #176417",
"'.	c #192219",
").	c #176117",
"!.	c #176A17",
"~.	c #176D17",
"{.	c #191E19",
"].	c #166016",
"^.	c #166816",
"/.	c #145F14",
"(.	c #0E150E",
"_.	c #7E7A75",
":.	c #A5766D",
"<.	c #9C948E",
"[.	c #8E8C86",
"}.	c #9E6A62",
"|.	c #8A965A",
"1.	c #96BA22",
"2.	c #8A9A3E",
"3.	c #526A66",
"4.	c #8A8662",
"5.	c #425252",
"6.	c #5A625A",
"                                                                                                ",
"                                                                                                ",
"                                                                                                ",
"                                                                                                ",
"                                                                                                ",
"                                                                                                ",
"                                                                                                ",
"                                                                                                ",
"              . + + + + + @ @ @ @ # # # . . . $ % % & & * = - - - ; ; > ,                       ",
"            . + + + + + @ @ @ @ # # # . . . $ % % & & * = - - - ; ; ; > ' ) !                   ",
"            + + ; ~ ~ ~ ~ ~ ~ ~ ~ ~ ~ ~ { { { { ] ] ] ] ] ] ] ] ^ ^ ^ / ( ) _                   ",
"            + + ~ : < : : : [ : : [ ~ ~ ~ ~ ~ { { { ] ] ] ^ ^ ^ ^ ^ ^ / / ) }                   ",
"            + + : < | | 1 2 2 3 3 4 5 < : [ ~ { ] ] ] ] ] ] ^ ^ ^ ^ / / / , 6 7                 ",
"            + + ~ < 8 9 4 4 4 [ [ : : : ~ { { { ] ] ] ] ] ] ^ ^ ^ / / / / , } 7                 ",
"            + @ ~ < 0 4 ~ [ ~ ~ { { { { { { { { { { ] ] ^ ^ ^ ^ ^ / / / / 6 a 7                 ",
"            @ @ ~ : 9 4 [ [ { { { { { { { { { { { { ] ] ^ ^ ^ / / / / / b } a 7                 ",
"            @ @ ~ : 2 c d e f g { h i h { j k l m { e ] n o p q r / / b b } _ 7                 ",
"            @ # : : 2 4 s { t u { v w j { x t y z { e ] A B ^ C D / b b b } _ 7                 ",
"            # # ~ : 3 < e { h E { F G H { u I { J { e ] K L ] / M b b b b a ! 7 N               ",
"            # # ~ ~ 4 < d e O P Q R { e { G w d S { e { e ] ] / / b b b b _ ! 7 7               ",
"            # # [ : 5 < T { h u m U V W X Y { Z u { e { e ` ] /  .b b b .._ ! 7 7               ",
"            # . ~ ~ < [ e { t w +.@.{ #.$.H Q %.u { e { &.*.] =.-.b b b ..;.( 7 7               ",
"            . . { ~ : ~ >.e k j ,.t { '.).S !.~.#.{ e { {.].^./.(.b b ....! ( 7 7               ",
"            . $ { ~ [ : ~ { { { { { { { { { { { { { { { { ] ^ / / b ......! _.7 7               ",
"            $ % { { ~ ] ] ] { { { { { { { { { { { { { { ] ^ ^ b b ........! _.7 7               ",
"            % % { ] { ] ] ] { { { { { { { { { { { { { ] ] ^ b b ..........( 8 7 7               ",
"            % & ] ] ] ] ] ] ] { { { { { { { { { { { ] ] b b b ..........7 _.8 7 7               ",
"            & & ] ] ] ] ] ] ] ] { { { { { { { { { ] ] b b b b ........7 7 _.8 7 7               ",
"            & * ] ] ] ] ] ] ^ ] ] ] ] ] ] { { { ] ] b b b ..........7 7 7 8 8 7 7               ",
"            * = ] ] : : : [ : [ : : ~ : 5 5 < ~ ~ : { ~ : : ~ : [ ~ [ ] 7 8 8 7 7               ",
"            = - } ] ^ ^ ^ ^ ^ ^ / / / / / b b b b b b b ........7 7 7 7 9 8 8 7 7               ",
"            > - ; ; ; ; > > > > ' ' ' ' ) ) ) , 6 6 6 a a a _ _ ! ! _.8 8 8 0 7 7               ",
"              6 > > ' ' ' ' ) ) :.<., [.}.;.} } }.:.! _ ( | ! |.1.2.8 | 0 1 9 7 7               ",
"                3.4.) ) , , <.6 } } a _ _ a ;.! ! ! ! ( ( _._.8 | 0 0 9 5.5.7 7 7               ",
"                    7 7 7 4 4 3 | | 3 1 8 _.9 0 _.| 2 9 1 3 2 7 7 7 7 7 7 7 7 7 7               ",
"                        7 3 3 1 1 2 2 1 1 2 1 0 0 2 1 0 0 9 1 7 7 7 7 7 7 7 7 7                 ",
"                  9 ( ! a _ a _ _ ! ! ! ! ( ( ( _.8 8 8 8 | | 0 1 1 3 7 7 7 7                   ",
"                  6.a a , } 6 } } a a _ _ _ ! ! ! ! ( ( _._.8 0 | 2 2 7                         ",
"                            7 7 7 7 7 7 7 7 7 7 7 7 7 7 7 7 7 7 7 7                             ",
"                                  7 7 7 7 7 7 7 7 7 7 7 7 N N                                   ",
"                                                                                                ",
"                                                                                                ",
"                                                                                                ",
"                                                                                                ",
"                                                                                                ",
"                                                                                                ",
"                                                                                                ",
"                                                                                                "};
