/* XPM */
static char * kcemu_pcm_xpm[] = {
"48 48 59 1",
" 	c None",
".	c #D7D6CE",
"+	c #EEEADE",
"@	c #E6E4DA",
"#	c #DFDDD5",
"$	c #D6D2C6",
"%	c #D1CEC6",
"&	c #CECABE",
"*	c #CEC6BE",
"=	c #C6C6C0",
"-	c #C4C0B8",
";	c #BAB6AF",
">	c #B0ADA4",
",	c #9E9A92",
"'	c #AAA6A0",
")	c #A29F98",
"!	c #878380",
"~	c #1D1E1D",
"{	c #1A1A1A",
"]	c #151615",
"^	c #121212",
"/	c #0E0E0E",
"(	c #817E7A",
"_	c #8E8B82",
":	c #262726",
"<	c #302F30",
"[	c #222222",
"}	c #96928D",
"|	c #70706B",
"1	c #5E5E58",
"2	c #545451",
"3	c #4D4C49",
"4	c #414040",
"5	c #3A3A3A",
"6	c #96968D",
"7	c #020202",
"8	c #797472",
"9	c #595A56",
"0	c #6D6863",
"a	c #8E8E8E",
"b	c #0A0A0A",
"c	c #363636",
"d	c #00B823",
"e	c #191919",
"f	c #000000",
"g	c #060606",
"h	c #92837A",
"i	c #7E7A75",
"j	c #A5766D",
"k	c #9C948E",
"l	c #8E8C86",
"m	c #9E6A62",
"n	c #8A965A",
"o	c #96BA22",
"p	c #8A9A3E",
"q	c #526A66",
"r	c #8A8662",
"s	c #425252",
"t	c #5A625A",
"                                                ",
"                                                ",
"                                                ",
"                                                ",
"                                                ",
"                                                ",
"                                                ",
"                                                ",
"       .+++++@@@@###...$%%&&*=---;;>,           ",
"      .+++++@@@@###...$%%&&*=---;;;>')!         ",
"      ++;~~~~~~~~~~~{{{{]]]]]]]]^^^/()_         ",
"      ++~:<:::[::[~~~~~{{{]]]^^^^^^//)}         ",
"      ++:<||1223345<:[~{]]]]]]^^^^///,67        ",
"      ++~<89444[[:::~{{{]]]]]]^^^////,}7        ",
"      +@~<04~[~~{{{{{{{{{{]]^^^^^////6a7        ",
"      @@~:94[[{{{{{{{{{{{{]]^^^/////b}a7        ",
"      @@~:2c~ddd{{{dd{{{{{d]d^^/d//bb}_7        ",
"      @#::24:de{d{d{{d{{{{d]dd^dd/bbb}_7        ",
"      ##~:3<{d{{d{d{{{{{{d{]d]d/dbbbba!7f       ",
"      ##~~4<{d{{d{d{e{{{{d{]d]]/dbbbb_!77       ",
"      ##[:5<~ddd{{d{{{{{d{{{d]^/dbbbg_!77       ",
"      #.~~<[{d{{{ed{{{{{d{{ed]]/dbbbgh(77       ",
"      ..{~:~]d{{{{d{ed{d{{{{d]]/dbbgg!(77       ",
"      .${~[:~d{{{e{ddeed{{{{d]^/dbggg!i77       ",
"      $%{{~]]]{{{{{{{{{{{{{{]^^bbgggg!i77       ",
"      %%{]{]]]{{{{{{{{{{{{{]]^bbggggg(877       ",
"      %&]]]]]]]{{{{{{{{{{{]]bbbggggg7i877       ",
"      &&]]]]]]]]{{{{{{{{{]]bbbbgggg77i877       ",
"      &*]]]]]]^]]]]]]{{{]]bbbggggg7778877       ",
"      *=]]:::[:[::~:55<~~:{~::~:[~[]78877       ",
"      =-}]^^^^^^/////bbbbbbbgggg777798877       ",
"      >-;;;;>>>>''''))),666aaa__!!i888077       ",
"       6>>''''))jk,lmh}}mj!_(|!nop8|01977       ",
"        qr)),,k6}}a__ah!!!!((ii8|009ss777       ",
"          777443||318i90i|291327777777777       ",
"            7331122112100210091777777777        ",
"         9(!a_a__!!!!(((i8888||01137777         ",
"         taa,}6}}aa___!!!!((ii80|227            ",
"              77777777777777777777              ",
"                 777777777777ff                 ",
"                                                ",
"                                                ",
"                                                ",
"                                                ",
"                                                ",
"                                                ",
"                                                ",
"                                                "};
