/* XPM */
static char * kcemu_icon_xpm[] = {
"48 48 106 2",
"  	c None",
". 	c #000000",
"+ 	c #606060",
"@ 	c #FFFFFF",
"# 	c #C0C0C0",
"$ 	c #D44330",
"% 	c #DC7D2E",
"& 	c #E9D52C",
"* 	c #B9AA2D",
"= 	c #55512F",
"- 	c #33332F",
"; 	c #303030",
"> 	c #39382F",
", 	c #81782E",
"' 	c #D1BF2C",
") 	c #32312F",
"! 	c #524E2F",
"~ 	c #CBBB2C",
"{ 	c #AB9E2D",
"] 	c #4D492F",
"^ 	c #766E2E",
"/ 	c #CEBD2C",
"( 	c #35352F",
"_ 	c #A69A2D",
": 	c #7C742E",
"< 	c #A79A2D",
"[ 	c #D8C62C",
"} 	c #D9C72C",
"| 	c #A0942D",
"1 	c #847B2E",
"2 	c #B7A92D",
"3 	c #E7D32C",
"4 	c #E8D42C",
"5 	c #94892D",
"6 	c #CBBA2C",
"7 	c #7D752E",
"8 	c #E4D12C",
"9 	c #4B482F",
"0 	c #D5C32C",
"a 	c #37372F",
"b 	c #7F762E",
"c 	c #7E752E",
"d 	c #4A472F",
"e 	c #AD9F2D",
"f 	c #CAB92C",
"g 	c #645F2E",
"h 	c #DCCA2C",
"i 	c #6A632E",
"j 	c #3A392F",
"k 	c #E5D12C",
"l 	c #534F2F",
"m 	c #5D582F",
"n 	c #77702E",
"o 	c #35342F",
"p 	c #A4972D",
"q 	c #54502F",
"r 	c #776F2E",
"s 	c #3C3B2F",
"t 	c #E1CE2C",
"u 	c #32322F",
"v 	c #958A2D",
"w 	c #89802E",
"x 	c #E1CD2C",
"y 	c #D7C52C",
"z 	c #BEAE2C",
"A 	c #CDBC2C",
"B 	c #BBAC2C",
"C 	c #C6B52C",
"D 	c #56522F",
"E 	c #403E2F",
"F 	c #877E2E",
"G 	c #E6D32C",
"H 	c #B6A72D",
"I 	c #D0BF2C",
"J 	c #91872D",
"K 	c #3D3C2F",
"L 	c #DFCC2C",
"M 	c #8F842D",
"N 	c #8F852D",
"O 	c #42402F",
"P 	c #66602E",
"Q 	c #B4A62D",
"R 	c #6C662E",
"S 	c #45432F",
"T 	c #DDCA2C",
"U 	c #524F2F",
"V 	c #6F682E",
"W 	c #90862D",
"X 	c #45422F",
"Y 	c #DBC82C",
"Z 	c #625C2E",
"` 	c #3D3B2F",
" .	c #DECB2C",
"..	c #31312F",
"+.	c #9B8F2D",
"@.	c #C0B02C",
"#.	c #30302F",
"$.	c #5C572F",
"%.	c #CCBB2C",
"&.	c #B4A52D",
"*.	c #C7B72C",
"=.	c #998E2D",
"-.	c #E0CD2C",
";.	c #3E3C2F",
">.	c #7F772E",
",.	c #E3D02C",
"                                                                                                ",
"                                                                                                ",
"          . .                     . . .               + . . . . . . . . . . . . . . +           ",
"        . @ @ .                 . @ @ # +           . # @ @ @ @ @ @ @ @ @ @ @ @ @ @ # +         ",
"        . @ @ .               . @ @ @ .           + # @ @ @ @ @ @ @ @ @ @ @ @ @ @ @ @ .         ",
"        . @ @ .             . @ @ @ .             . @ @ @ @ # + . . . . . + @ @ @ @ @ .         ",
"        . @ @ .           . @ @ @ .               . @ @ @ @ +               + @ @ @ @ .         ",
"        . @ @ .         . @ @ @ .                 . @ @ @ @ .               . @ @ @ @ .         ",
"        . @ @ .       . @ @ @ .                   . @ @ @ @ .               . @ @ @ @ .         ",
"        . @ @ .     . @ @ @ .                     . @ @ @ @ .               + # @ @ # +         ",
"        . @ @ .   . @ @ @ .                       . @ @ @ @ .                 + . . +           ",
"        . @ @ + . @ @ @ .                         . @ @ @ @ .                                   ",
"        . @ @ @ @ @ @ +                           . @ @ @ @ .                                   ",
"        . @ @ @ @ @ @ # + . . . . . +             . @ @ @ @ .                                   ",
"        . @ @ @ @ @ @ @ @ @ @ @ @ @ # +           . @ @ @ @ .                                   ",
"        . @ @ @ @ @ @ @ @ @ @ @ @ @ @ # +         . @ @ @ @ .                                   ",
"        . @ @ @ @ @ @ @ @ @ @ @ @ @ @ @ .         . @ @ @ @ .                                   ",
"        . @ @ @ @ # + . . . + # @ @ @ @ .         . @ @ @ @ .                                   ",
"        . @ @ @ @ +           + @ @ @ @ .         . @ @ @ @ .                                   ",
"        . @ @ @ @ .           . @ @ @ @ .         . @ @ @ @ .                                   ",
"        . @ @ @ @ .           . @ @ @ @ .         . @ @ @ @ .                                   ",
"        . @ @ @ @ .           . @ @ @ @ .         . @ @ @ @ .                     + +           ",
"        . @ @ @ @ .           . @ @ @ @ .         . @ @ @ @ .                   + # # +         ",
"        . @ @ @ @ .           . @ @ @ @ .         . @ @ @ @ .                   . @ @ .         ",
"        . @ @ @ @ .           . @ @ @ @ .         . @ @ @ @ .                   . @ @ .         ",
"        . @ @ @ @ .           . @ @ @ @ .         . @ @ @ @ +                   + @ @ .         ",
"        . @ @ @ @ .           . @ @ @ @ .         . @ @ @ @ # + . . . . . . . + # @ @ .         ",
"        . @ @ @ @ .           . @ @ @ @ .         + # @ @ @ @ @ @ @ @ @ @ @ @ @ @ @ @ .         ",
"        + # @ @ # +           + # @ @ # +           . # @ @ @ @ @ @ @ @ @ @ @ @ @ @ # +         ",
"          + . . +               + . . +               + . . . . . . . . . . . . . . +           ",
"                                                                                                ",
"                                                                                                ",
"$ $ $ $ $ $ $ $ $ $ $ $ $ $ $ $ $ $ $ $ $ $ $ $ $ $ $ $ $ $ $ $ $ $ $ $ $ $ $ $ $ $ $ $ $ $ $ $ ",
"% % % % % % % % % % % % % % % % % % % % % % % % % % % % % % % % % % % % % % % % % % % % % % % % ",
"& & & & & & & & & & & & & & & & & & & & & & & & & & & & & & & & & & & & & & & & & & & & & & & & ",
"& & & & & & & * = - ; ; ; > , & & & ' ; ; ; ; ; ; ; ; ) ! ~ & & & ' ; { & & & & & ] ^ & & & & & ",
"& & & & & & / ( ; ; ; ; ; ; ; / & & _ ; ; ; ; ; ; ; ; ; ; : & & & < ; [ & & & & } ; | & & & & & ",
"& & & & & & 1 - 2 3 & & 4 5 ; 6 & & 7 ( 8 & & ^ 9 & & 0 a b & & & c d & & & & & e ; f & & & & & ",
"& & & & & & = g & & & & h i j k & & l m & & & d n & & 8 o p & & & q r & & & & & , s 4 & & & & & ",
"& & & & & t u v ^ ; ; ; ; ; w & & x ) w & & y ; p & & z ; A & & t u p & & & & & q g & & & & & & ",
"& & & & & B ; C D ; ; ; E F G & & * ; H & & { ; I & & J K & & & B ; I & & & & L ) M & & & & & & ",
"& & & & & J K 4 & & & & & & & & & N ) L & & b O & & & g P & & & J O & & & & & Q ; * & & & & & & ",
"& & & & & R S T & & & & & & & & & P = & & & U V & & 3 j W & & & R X h & & & Y Z ( t & & & & & & ",
"& & & & & i ; ; ; ; ; ; ` & & & 4 K , & &  ...+.& & C ; * & & & i ; ; ; ; ; ; ; 7 & & & & & & & ",
"& & & & & @.9 #.; ; ; ; $.& & & %.; e & & &.; *.& & =.) -.& & & @.9 #.; ; ; ;.>.,.& & & & & & & ",
"& & & & & & & & & & & & & & & & & & & & & & & & & & & & & & & & & & & & & & & & & & & & & & & & ",
"% % % % % % % % % % % % % % % % % % % % % % % % % % % % % % % % % % % % % % % % % % % % % % % % ",
"$ $ $ $ $ $ $ $ $ $ $ $ $ $ $ $ $ $ $ $ $ $ $ $ $ $ $ $ $ $ $ $ $ $ $ $ $ $ $ $ $ $ $ $ $ $ $ $ "};
