/* XPM */
static char * kcemu_kc87_xpm[] = {
"48 48 274 2",
"  	c None",
". 	c #D7D7CF",
"+ 	c #EFEBDF",
"@ 	c #E7E7DF",
"# 	c #E7E3D7",
"$ 	c #DFDFD7",
"% 	c #DFDBD7",
"& 	c #DFD7CF",
"* 	c #D7D3C7",
"= 	c #D7CFC7",
"- 	c #CFCFC7",
"; 	c #CFCBBE",
"> 	c #CFC7BE",
", 	c #C7C7BE",
"' 	c #C7C3BE",
") 	c #C7BEB6",
"! 	c #BDBDB5",
"~ 	c #BCB8B4",
"{ 	c #BBB7AB",
"] 	c #B6AEA7",
"^ 	c #9B9B94",
"/ 	c #BEBEB6",
"( 	c #BEBAB6",
"_ 	c #BCB8AC",
": 	c #B9B1A9",
"< 	c #AEAEA6",
"[ 	c #A9A6A2",
"} 	c #A4A196",
"| 	c #83807C",
"1 	c #B6B2B6",
"2 	c #1F1F1F",
"3 	c #1E1E1E",
"4 	c #1B1C1B",
"5 	c #1B1B1B",
"6 	c #191B19",
"7 	c #191919",
"8 	c #171717",
"9 	c #141614",
"0 	c #141414",
"a 	c #131413",
"b 	c #131313",
"c 	c #121112",
"d 	c #111111",
"e 	c #0F0F0F",
"f 	c #7C7C7C",
"g 	c #A39C95",
"h 	c #918A83",
"i 	c #8E8E8E",
"j 	c #0F0D0F",
"k 	c #96938F",
"l 	c #252425",
"m 	c #0D0D0D",
"n 	c #9B9894",
"o 	c #979489",
"p 	c #000000",
"q 	c #272727",
"r 	c #9C988D",
"s 	c #909089",
"t 	c #242224",
"u 	c #0A0C0A",
"v 	c #95958D",
"w 	c #908D89",
"x 	c #1F211F",
"y 	c #0B0C0B",
"z 	c #0A0A0A",
"A 	c #95918D",
"B 	c #8F8C88",
"C 	c #0B0D0B",
"D 	c #0B0B0B",
"E 	c #94908D",
"F 	c #8F8881",
"G 	c #E7DFD7",
"H 	c #242424",
"I 	c #252525",
"J 	c #131113",
"K 	c #090A09",
"L 	c #958D86",
"M 	c #898982",
"N 	c #3FFFC8",
"O 	c #FFFFFF",
"P 	c #090909",
"Q 	c #8D8D86",
"R 	c #898682",
"S 	c #C4C4C4",
"T 	c #8D8A86",
"U 	c #090709",
"V 	c #88827B",
"W 	c #DFDBCF",
"X 	c #090809",
"Y 	c #060606",
"Z 	c #8D867F",
"` 	c #827E7B",
" .	c #0A080A",
"..	c #070707",
"+.	c #86837F",
"@.	c #827F7B",
"#.	c #827B7B",
"$.	c #070607",
"%.	c #040404",
"&.	c #86827E",
"*.	c #7B7B74",
"=.	c #101010",
"-.	c #7E7E77",
";.	c #7A7773",
">.	c #040304",
",.	c #7E7A77",
"'.	c #7B7774",
").	c #020202",
"!.	c #7D7976",
"~.	c #797373",
"{.	c #7C7575",
"].	c #797272",
"^.	c #020102",
"/.	c #7B7474",
"(.	c #C6C6BD",
"_.	c #C7C3B6",
":.	c #959195",
"<.	c #121312",
"[.	c #121212",
"}.	c #100F10",
"|.	c #050505",
"1.	c #555955",
"2.	c #7A7373",
"3.	c #787171",
"4.	c #B3AFA3",
"5.	c #C3BFB2",
"6.	c #BABAB2",
"7.	c #BBB7B3",
"8.	c #BAB2AA",
"9.	c #B1B1A9",
"0.	c #B1ADA9",
"a.	c #B0ACA0",
"b.	c #A8A8A0",
"c.	c #A9A5A1",
"d.	c #A9A199",
"e.	c #A19D99",
"f.	c #A29E9A",
"g.	c #A09991",
"h.	c #999591",
"i.	c #9A9692",
"j.	c #918D8A",
"k.	c #918A8A",
"l.	c #898981",
"m.	c #87837F",
"n.	c #85817D",
"o.	c #817A7A",
"p.	c #7D7676",
"q.	c #767070",
"r.	c #64645D",
"s.	c #9B978C",
"t.	c #B2AEAA",
"u.	c #B2AEA3",
"v.	c #A9A9A2",
"w.	c #A8A499",
"x.	c #A7A098",
"y.	c #9F9F98",
"z.	c #AF7B6F",
"A.	c #A78A82",
"B.	c #A19992",
"C.	c #918D82",
"D.	c #A76F68",
"E.	c #997C6F",
"F.	c #91918A",
"G.	c #98918A",
"H.	c #9F6B60",
"I.	c #987B6F",
"J.	c #8A8682",
"K.	c #928A8A",
"L.	c #6F6F68",
"M.	c #83837C",
"N.	c #899458",
"O.	c #96BB23",
"P.	c #8A9B3F",
"Q.	c #766F6F",
"R.	c #726B6B",
"S.	c #5F5F59",
"T.	c #585852",
"U.	c #536B67",
"V.	c #888561",
"W.	c #9D9D96",
"X.	c #9D9A96",
"Y.	c #9C988E",
"Z.	c #9D968F",
"`.	c #94948D",
" +	c #96928F",
".+	c #95928E",
"++	c #8F8F88",
"@+	c #8E8B87",
"#+	c #8E8780",
"$+	c #888481",
"%+	c #86827F",
"&+	c #888181",
"*+	c #878080",
"=+	c #817D7A",
"-+	c #807D79",
";+	c #807979",
">+	c #7A7A73",
",+	c #75726E",
"'+	c #73706C",
")+	c #6E6868",
"!+	c #6D6767",
"~+	c #5A5A53",
"{+	c #415252",
"]+	c #415353",
"^+	c #414441",
"/+	c #41413B",
"(+	c #4D4D47",
"_+	c #726F6C",
":+	c #726D61",
"<+	c #4E4E48",
"[+	c #5C5C55",
"}+	c #79766D",
"|+	c #79796D",
"1+	c #5B5B54",
"2+	c #6C655B",
"3+	c #78786C",
"4+	c #72726C",
"5+	c #55554E",
"6+	c #5C5855",
"7+	c #4E4A48",
"8+	c #53504D",
"9+	c #524F4B",
"0+	c #4B4B45",
"a+	c #52524C",
"b+	c #525652",
"c+	c #69695F",
"d+	c #696259",
"e+	c #535653",
"f+	c #5F5C52",
"g+	c #706960",
"h+	c #706A6A",
"i+	c #595952",
"j+	c #5D5F57",
"k+	c #515956",
"l+	c #7F7F78",
"m+	c #85857F",
"n+	c #938F85",
"o+	c #928B84",
"p+	c #8D8D87",
"q+	c #8D8986",
"r+	c #8D8B80",
"s+	c #86867F",
"t+	c #878480",
"u+	c #867F79",
"v+	c #7E7C78",
"w+	c #807C79",
"x+	c #7F7979",
"y+	c #797773",
"z+	c #797673",
"A+	c #79736D",
"B+	c #73736D",
"C+	c #6E6C68",
"D+	c #696663",
"E+	c #5E5E55",
"F+	c #605F58",
"G+	c #544F4B",
"H+	c #596259",
"I+	c #878E87",
"J+	c #8E8E87",
"K+	c #9C998F",
"L+	c #9A938D",
"M+	c #95958F",
"N+	c #949287",
"O+	c #969389",
"P+	c #8F8B88",
"Q+	c #8E8B80",
"R+	c #898282",
"S+	c #817A73",
"T+	c #797972",
"U+	c #76736F",
"V+	c #6F6B69",
"W+	c #6E6C63",
"X+	c #54504C",
"Y+	c #56524E",
"                                                                                                ",
"                                                                                                ",
"                                                                                                ",
"                                                                                                ",
"                                                                                                ",
"                                                                                                ",
"                                                                                                ",
"                                                                                                ",
"              . + + + + + @ @ # # $ $ % & . . * = - ; ; > , ' ) ! ~ { ] ^                       ",
"            . + + + + + @ @ # # $ $ % & . . * - - ; ; > , ' ) / ( _ : < [ } |                   ",
"            + + 1 2 2 2 2 2 2 3 3 3 4 4 5 6 7 7 8 8 8 8 9 0 a a b c d e f g h                   ",
"            + + 2 i i i i i i i i i i i i i i i i i i i i i i i i i i i j g k                   ",
"            + + l i i i i i i i i i i i i i i i i i i i i i i i i i i i m n o p                 ",
"            + + 2 i i i i i i i i q q q 3 i i i i i i i i i i i i i i i m r s p                 ",
"            + @ 2 i i 7 3 t 4 4 5 6 6 7 7 7 i i i i i i i i i i i i i i u v w p                 ",
"            @ @ 2 i 7 7 t x 7 7 7 7 7 7 7 7 7 7 i i i i i i i i i i m y z A B p                 ",
"            # # 2 7 7 7 4 4 7 7 7 7 7 7 7 7 7 7 7 7 i i i i i i m m C D z E F p                 ",
"            # G H 7 7 7 I 2 7 7 7 7 7 7 7 7 7 7 7 7 9 9 9 J J m m C D D K L M p                 ",
"            G $ 3 i i i 5 6 7 7 N 7 7 7 7 7 7 7 7 7 7 9 9 O O O O O O K P Q R p p               ",
"            $ % 3 i i i i i i i i i i i 7 7 7 7 7 7 7 O O O O O O S O P P T R p p               ",
"            % $ x i i i i i i i i i i i i i 7 7 7 7 7 7 9 9 J m D z z P U T V p p               ",
"            W . 4 i i i i i i i i i i i i i 7 7 7 7 7 7 7 9 9 m m z z X Y Z ` p p               ",
"            . . 5 i i i i i i i i i i i i i 7 7 7 7 7 7 7 9 9 m i z  ...Y +.@.p p               ",
"            . * 6 i i i i i i i i i i i i i i i 7 7 7 7 9 9 i m i  .i ..Y +.#.p p               ",
"            * = 6 i i i i i i i i i i i i i i i 7 7 7 7 i z i z i ..i $.%.&.*.p p               ",
"            = - 7 i i i i i i i i i i i i i i i i 7 7 9 i =.i z i ..i %.%.-.;.p p               ",
"            - ; 8 i i i i i i i i i i i i i i i i 7 9 9 i z i ..i $.i N >.,.'.p p               ",
"            ; ; 8 i i i i i i i i i i i i i i i i i 9 N i i i i i i i i ).!.~.p p               ",
"            ; > 8 i i i i i i i i i i i i i i i i i i i i i i i i i i i ).{.].p p               ",
"            > , 9 i i i i i i i i i i i i i i i i i i i i i i i i i i i ^./.].p p               ",
"            (._.:.0 <.<.[.c c =.}.}.m m C D D z z z  . ...$.|.%.>.).).^.1.2.3.p p               ",
"            4.5.6.7.{ 8.9.0.a.a.b.[ c.d.e.e.f.g.h.h.i.j.j.j.k.l.m.n.o.p.2.q.r.p p               ",
"              s.t.u.v.v.c.w.x.y.z.A.B.C.D.E.F.G.H.I.J.K.@.L.M.N.O.P.].Q.R.S.T.p p               ",
"                U.V.W.W.X.Y.Z.`. +.+++@+@+B #+$+%+&+*+=+-+;+>+,+'+)+!+~+{+]+p p p               ",
"                    p p p ^+/+(+_+:+<+[+}+|+1+2+3+4+5+6+[+7+8+p p p p p p p p p p               ",
"                        p 9+0+S.S.a+a+S.S.b+S.c+d+e+f+g+h+i+j+p p p p p p p p p                 ",
"                  k+l+m+n+o+p+q+r+s+t++.+.u+v+w+x+y+z+;.A+B+C+D+E+F+G+p p p p                   ",
"                  H+I+J+K+L+M+N+O+J+J+P+Q+F +.$+*+R+-+-+S+T+U+V+W+X+Y+p                         ",
"                            p p p p p p p p p p p p p p p p p p p p                             ",
"                                  p p p p p p p p p p p p p p                                   ",
"                                                                                                ",
"                                                                                                ",
"                                                                                                ",
"                                                                                                ",
"                                                                                                ",
"                                                                                                ",
"                                                                                                ",
"                                                                                                "};
