/* XPM */
static char * kcemu_vcs80_xpm[] = {
"48 48 177 2",
"  	c None",
". 	c #D7D6CE",
"+ 	c #EEEADE",
"@ 	c #E6E4DA",
"# 	c #DFDDD5",
"$ 	c #D6D2C6",
"% 	c #D1CEC6",
"& 	c #CECABE",
"* 	c #CEC6BE",
"= 	c #C6C6C0",
"- 	c #C4C0B8",
"; 	c #BAB6AF",
"> 	c #B0ADA4",
", 	c #9E9A92",
"' 	c #AAA6A0",
") 	c #A29F98",
"! 	c #878380",
"~ 	c #1D1E1D",
"{ 	c #1A1A1A",
"] 	c #151615",
"^ 	c #121212",
"/ 	c #0E0E0E",
"( 	c #817E7A",
"_ 	c #8E8B82",
": 	c #262726",
"< 	c #302F30",
"[ 	c #222222",
"} 	c #96928D",
"| 	c #70706B",
"1 	c #5E5E58",
"2 	c #545451",
"3 	c #4D4C49",
"4 	c #414040",
"5 	c #3A3A3A",
"6 	c #96968D",
"7 	c #020202",
"8 	c #797472",
"9 	c #595A56",
"0 	c #6D6863",
"a 	c #8E8E8E",
"b 	c #0A0A0A",
"c 	c #4D7242",
"d 	c #30FF00",
"e 	c #204617",
"f 	c #24860E",
"g 	c #2DE303",
"h 	c #1A1A19",
"i 	c #2BCC05",
"j 	c #2EF201",
"k 	c #1B2718",
"l 	c #151714",
"m 	c #2ACE04",
"n 	c #2EF400",
"o 	c #142210",
"p 	c #0E0E0D",
"q 	c #28CA03",
"r 	c #0C1909",
"s 	c #33D80C",
"t 	c #274320",
"u 	c #225D14",
"v 	c #1D4214",
"w 	c #1D3F15",
"x 	c #2CDB04",
"y 	c #1A2019",
"z 	c #2CDE03",
"A 	c #226D10",
"B 	c #1D4015",
"C 	c #2BD205",
"D 	c #1A1F19",
"E 	c #1A1C19",
"F 	c #193F11",
"G 	c #2AD104",
"H 	c #151A14",
"I 	c #2BDA02",
"J 	c #121411",
"K 	c #13350B",
"L 	c #2AD902",
"M 	c #0E140D",
"N 	c #29D401",
"O 	c #0A0C09",
"P 	c #30DC07",
"Q 	c #1B2E17",
"R 	c #24880C",
"S 	c #227110",
"T 	c #269B0B",
"U 	c #227210",
"V 	c #24840D",
"W 	c #23790F",
"X 	c #228A0A",
"Y 	c #1A4910",
"Z 	c #29C305",
"` 	c #1A6908",
" .	c #219606",
"..	c #0C1D09",
"+.	c #26C302",
"@.	c #000000",
"#.	c #30E406",
"$.	c #1E4D14",
"%.	c #206310",
"&.	c #27A10A",
"*.	c #206211",
"=.	c #26A30A",
"-.	c #24880D",
";.	c #24830E",
">.	c #1D600E",
",.	c #229C05",
"'.	c #185A09",
").	c #165806",
"!.	c #1F9104",
"~.	c #30E904",
"{.	c #26920D",
"].	c #1A1D19",
"^.	c #2BD005",
"/.	c #1B2B18",
"(.	c #269A0B",
"_.	c #205C12",
":.	c #2CD904",
"<.	c #1C3716",
"[.	c #25A607",
"}.	c #1C5A0E",
"|.	c #29CD02",
"1.	c #0C1C09",
"2.	c #1F9604",
"3.	c #165C06",
"4.	c #060606",
"5.	c #2EEE02",
"6.	c #1A2119",
"7.	c #191919",
"8.	c #2BD204",
"9.	c #1C3117",
"0.	c #1A2218",
"a.	c #2CD604",
"b.	c #172D12",
"c.	c #151D14",
"d.	c #29CF02",
"e.	c #29D201",
"f.	c #0E2808",
"g.	c #92837A",
"h.	c #172B13",
"i.	c #27A609",
"j.	c #2CD804",
"k.	c #205A12",
"l.	c #27AB09",
"m.	c #1C3317",
"n.	c #2DE802",
"o.	c #1F5013",
"p.	c #27A709",
"q.	c #1C3516",
"r.	c #2DE602",
"s.	c #1B4A10",
"t.	c #22A205",
"u.	c #122B0C",
"v.	c #2CE800",
"w.	c #222221",
"x.	c #2CB10D",
"y.	c #2FFD00",
"z.	c #2FFE00",
"A.	c #23840D",
"B.	c #1F5213",
"C.	c #2FFC00",
"D.	c #25950B",
"E.	c #205912",
"F.	c #239009",
"G.	c #1A540C",
"H.	c #1E8E04",
"I.	c #7E7A75",
"J.	c #A5766D",
"K.	c #9C948E",
"L.	c #8E8C86",
"M.	c #9E6A62",
"N.	c #8A965A",
"O.	c #96BA22",
"P.	c #8A9A3E",
"Q.	c #526A66",
"R.	c #8A8662",
"S.	c #425252",
"T.	c #5A625A",
"                                                                                                ",
"                                                                                                ",
"                                                                                                ",
"                                                                                                ",
"                                                                                                ",
"                                                                                                ",
"                                                                                                ",
"                                                                                                ",
"              . + + + + + @ @ @ @ # # # . . . $ % % & & * = - - - ; ; > ,                       ",
"            . + + + + + @ @ @ @ # # # . . . $ % % & & * = - - - ; ; ; > ' ) !                   ",
"            + + ; ~ ~ ~ ~ ~ ~ ~ ~ ~ ~ ~ { { { { ] ] ] ] ] ] ] ] ^ ^ ^ / ( ) _                   ",
"            + + ~ : < : : : [ : : [ ~ ~ ~ ~ ~ { { { ] ] ] ^ ^ ^ ^ ^ ^ / / ) }                   ",
"            + + : < | | 1 2 2 3 3 4 5 < : [ ~ { ] ] ] ] ] ] ^ ^ ^ ^ / / / , 6 7                 ",
"            + + ~ < 8 9 4 4 4 [ [ : : : ~ { { { ] ] ] ] ] ] ^ ^ ^ / / / / , } 7                 ",
"            + @ ~ < 0 4 ~ [ ~ ~ { { { { { { { { { { ] ] ^ ^ ^ ^ ^ / / / / 6 a 7                 ",
"            @ @ ~ : 9 4 [ [ { { { { { { { { { { { { ] ] ^ ^ ^ / / / / / b } a 7                 ",
"            @ @ ~ : c d e f g h i d j k h i d j k { l m d n o p q d n r b } _ 7                 ",
"            @ # : : 2 s t u v w x y z A B C D z A E F G H I J K L M N O b } _ 7                 ",
"            # # ~ : 3 P Q R { S T { { { U V { { { { W X Y Z ^ `  ...+.b b a ! 7 @.              ",
"            # # ~ ~ 4 #.$.%.{ &.*.{ { { =.d d -.{ { ;.d d >.] ,.'.).!.b b _ ! 7 7               ",
"            # # [ : 5 ~.{.].{ ^./.{ { { { { (._.{ { :.<.[.}.^ |.1.2.3.b 4._ ! 7 7               ",
"            # . ~ ~ < 5.;.{ 6.C { 7.{ { { { 8.9.].0.a.7.a.b.c.d./ e.f.b 4.g.( 7 7               ",
"            . . { ~ : j h.{ $.i.<.j.{ k.l.m.n.7.h o.p.q.r.] s.t.u.v.b 4.4.! ( 7 7               ",
"            . $ { ~ w.x.~ { k.y.z.A.{ B.C.z.D.{ { E.y.z.F.] G.y.z.H.4.4.4.! I.7 7               ",
"            $ % { { ~ ] ] ] { { { { { { { { { { { { { { ] ^ ^ b b 4.4.4.4.! I.7 7               ",
"            % % { ] { ] ] ] { { { { { { { { { { { { { ] ] ^ b b 4.4.4.4.4.( 8 7 7               ",
"            % & ] ] ] ] ] ] ] { { { { { { { { { { { ] ] b b b 4.4.4.4.4.7 I.8 7 7               ",
"            & & ] ] ] ] ] ] ] ] { { { { { { { { { ] ] b b b b 4.4.4.4.7 7 I.8 7 7               ",
"            & * ] ] ] ] ] ] ^ ] ] ] ] ] ] { { { ] ] b b b 4.4.4.4.4.7 7 7 8 8 7 7               ",
"            * = ] ] : : : [ : [ : : ~ : 5 5 < ~ ~ : { ~ : : ~ : [ ~ [ ] 7 8 8 7 7               ",
"            = - } ] ^ ^ ^ ^ ^ ^ / / / / / b b b b b b b 4.4.4.4.7 7 7 7 9 8 8 7 7               ",
"            > - ; ; ; ; > > > > ' ' ' ' ) ) ) , 6 6 6 a a a _ _ ! ! I.8 8 8 0 7 7               ",
"              6 > > ' ' ' ' ) ) J.K., L.M.g.} } M.J.! _ ( | ! N.O.P.8 | 0 1 9 7 7               ",
"                Q.R.) ) , , K.6 } } a _ _ a g.! ! ! ! ( ( I.I.8 | 0 0 9 S.S.7 7 7               ",
"                    7 7 7 4 4 3 | | 3 1 8 I.9 0 I.| 2 9 1 3 2 7 7 7 7 7 7 7 7 7 7               ",
"                        7 3 3 1 1 2 2 1 1 2 1 0 0 2 1 0 0 9 1 7 7 7 7 7 7 7 7 7                 ",
"                  9 ( ! a _ a _ _ ! ! ! ! ( ( ( I.8 8 8 8 | | 0 1 1 3 7 7 7 7                   ",
"                  T.a a , } 6 } } a a _ _ _ ! ! ! ! ( ( I.I.8 0 | 2 2 7                         ",
"                            7 7 7 7 7 7 7 7 7 7 7 7 7 7 7 7 7 7 7 7                             ",
"                                  7 7 7 7 7 7 7 7 7 7 7 7 @.@.                                  ",
"                                                                                                ",
"                                                                                                ",
"                                                                                                ",
"                                                                                                ",
"                                                                                                ",
"                                                                                                ",
"                                                                                                ",
"                                                                                                "};
