/* XPM */
static char * kcemu_bic_xpm[] = {
"48 48 65 1",
" 	c None",
".	c #020202",
"+	c #1A9602",
"@	c #1ACE02",
"#	c #262726",
"$	c #4D4C49",
"%	c #7ACECE",
"&	c #817E7A",
"*	c #CECE7A",
"=	c #CE7ACE",
"-	c #CEA27A",
";	c #72FE5E",
">	c #C4C0B8",
",	c #060606",
"'	c #96BA22",
")	c #D1CEC6",
"!	c #AAA6A0",
"~	c #0A0A0A",
"{	c #5E5E58",
"]	c #12B602",
"^	c #FEFEFE",
"/	c #121212",
"(	c #CECABE",
"_	c #8A965A",
":	c #9E6A62",
"<	c #DFDDD5",
"[	c #526A66",
"}	c #3EFECA",
"|	c #A29F98",
"1	c #1A1A1A",
"2	c #CEC6BE",
"3	c #40403F",
"4	c #BAB6AF",
"5	c #70706B",
"6	c #8A9A3E",
"7	c #E6E2D6",
"8	c #3A3A3A",
"9	c #9C948E",
"0	c #9E9A92",
"a	c #222222",
"b	c #425252",
"c	c #8E8B82",
"d	c #7E7A75",
"e	c #313031",
"f	c #96968D",
"g	c #1D1E1D",
"h	c #5A625A",
"i	c #92837A",
"j	c #545451",
"k	c #96928D",
"l	c #151615",
"m	c #8E8C86",
"n	c #797472",
"o	c #E6E6DE",
"p	c #8A8662",
"q	c #0E0E0E",
"r	c #D7D5CC",
"s	c #6D6863",
"t	c #595A56",
"u	c #A5766D",
"v	c #B0ADA4",
"w	c #8E8E8E",
"x	c #878380",
"y	c #EEEADE",
"z	c #C6C6C0",
"                                                ",
"                                                ",
"                                                ",
"                                                ",
"                                                ",
"                                                ",
"                                                ",
"                                                ",
"       ryyyyyoo77<<<rrrr))((2z>>>44v0           ",
"      ryyyyyoo77<<<rrrr))((2z>>>444v!|x         ",
"      yy4ggggggggggg1111llllllll///q&|c         ",
"      yyg#e###a##aggggg111lll//////qq|k         ",
"      yy#e55{jj$$38e#ag1llllll////qqq0f.        ",
"      yygent333aa###g111llllll///qqqq0k.        ",
"      yoges3gagg1111111111ll/////qqqqfw.        ",
"      oog#t;;;;;;111;;;;;1ll/;;;;qqq~kw.        ",
"      77g#j;gg111;1111;111ll;//qq;q~~kc.        ",
"      7<##j;#g111;1111;111l;l//qqq~~~kc.        ",
"      <<g#$;11111;1111;1111;ll/qq~~~~wx.        ",
"      <<gg3;;;;;;11111;1111;lllqq~~~~cx..       ",
"      <<a#8;g1111;1111;1111;ll/q~~~~,cx..       ",
"      <rgge;11111;1111;1111;1llqq~~~,i&..       ",
"      rr1g#;l1111;1111;11111;llqq;~,,x&..       ",
"      rr1ga;;;;;;111;;;;;111l;;;;~,,,xd..       ",
"      r)11glll11111111111111l~/~~,,,,xd..       ",
"      ))1l1lll1111111111111ll/~~,,,,,&n..       ",
"      )(lllllll11111111111ll~~~,,,,,.dn..       ",
"      ((llllllll111111111ll~~~~,,,,..dn..       ",
"      (2llllll/llllll111ll~~~,,,,,...nn..       ",
"      2zll###a#a##g#88egg#1g##g#agal.nn..       ",
"      z>kl//////qqqqq~~~~~~~,,,,....tnn..       ",
"      v>4444vvvv!!!!|||0fffwwwccxxdnnns..       ",
"       fvv!!!!||u90m:ikk:uxc&5x_'6n5s{t..       ",
"        [p||009fkkwccwixxxx&&ddn5sstbb...       ",
"          ...33$55${ndtsd5jt{$j..........       ",
"            .$${{jj{{j{ssj{sst{.........        ",
"         t&xwcwccxxxx&&&dnnnn55s{{$....         ",
"         hww0kfkkwwcccxxxx&&ddns5jj.            ",
"              ....................              ",
"                 ............                   ",
"                                                ",
"                                                ",
"                                                ",
"                                                ",
"                                                ",
"                                                ",
"                                                ",
"                                                "};
