/* XPM */
static char * kcemu_z1013_xpm[] = {
"48 48 65 1",
" 	c None",
".	c #020202",
"+	c #1A9602",
"@	c #3EFECA",
"#	c #302F30",
"$	c #817E7A",
"%	c #72FE5E",
"&	c #D6D2C6",
"*	c #7ACECE",
"=	c #CE7ACE",
"-	c #CEA27A",
";	c #C4C0B8",
">	c #060606",
",	c #4D4C49",
"'	c #12B602",
")	c #CECE7A",
"!	c #96BA22",
"~	c #E6E4DA",
"{	c #121212",
"]	c #AAA6A0",
"^	c #5E5E58",
"/	c #1ACE02",
"(	c #CECABE",
"_	c #8A965A",
":	c #EEEADE",
"<	c #262726",
"[	c #9E6A62",
"}	c #526A66",
"|	c #FEFEFE",
"1	c #D1CEC6",
"2	c #A29F98",
"3	c #1A1A1A",
"4	c #CEC6BE",
"5	c #BAB6AF",
"6	c #70706B",
"7	c #8A9A3E",
"8	c #414040",
"9	c #9C948E",
"0	c #222222",
"a	c #9E9A92",
"b	c #425252",
"c	c #0E0E0E",
"d	c #8E8B82",
"e	c #7E7A75",
"f	c #96968D",
"g	c #5A625A",
"h	c #92837A",
"i	c #1D1E1D",
"j	c #545451",
"k	c #D7D6CE",
"l	c #151615",
"m	c #96928D",
"n	c #8E8C86",
"o	c #797472",
"p	c #8A8662",
"q	c #3A3A3A",
"r	c #DFDDD5",
"s	c #0A0A0A",
"t	c #6D6863",
"u	c #595A56",
"v	c #A5766D",
"w	c #B0ADA4",
"x	c #8E8E8E",
"y	c #878380",
"z	c #C6C6C0",
"                                                ",
"                                                ",
"                                                ",
"                                                ",
"                                                ",
"                                                ",
"                                                ",
"                                                ",
"       k:::::~~~~rrrkkk&11((4z;;;55wa           ",
"      k:::::~~~~rrrkkk&11((4z;;;555w]2y         ",
"      ::5iiiiiiiiiii3333llllllll{{{c$2d         ",
"      ::i<#<<<0<<0iiiii333lll{{{{{{cc2m         ",
"      ::<#66^jj,,8q#<0i3llllll{{{{cccaf.        ",
"      ::i#ou88800<<<i333llllll{{{ccccam.        ",
"      :~i#t8i0ii3333333333ll{{{{{ccccfx.        ",
"      ~~i<u800333333333333ll{{{cccccsmx.        ",
"      ~~i<j||||33|333||333l|l{{||ccssmd.        ",
"      ~r<<j8<i|3||33|33|33||l{|cc|sssmd.        ",
"      rri<,#3|333|33|33|333|ll{cc|sssxy.        ",
"      rrii8#3|33l|33|33|333|lll||ssssdy..       ",
"      rr0<q#|3333|33|33|333|ll{cs|ss>dy..       ",
"      rkii#0|3333|33|33|333|3llcc|ss>h$..       ",
"      kk3i<|l3333|33|33|333|3l|cc|s>>y$..       ",
"      k&3i0||||33|333||3333|ll{||s>>>ye..       ",
"      &133illl33333333333333ls{ss>>>>ye..       ",
"      113l3lll3333333333333ll{ss>>>>>$o..       ",
"      1(lllllll33333333333llsss>>>>>.eo..       ",
"      ((llllllll333333333llssss>>>>..eo..       ",
"      (4llllll{llllll333llsss>>>>>...oo..       ",
"      4zll<<<0<0<<i<qq#ii<3i<<i<0i0l.oo..       ",
"      z;ml{{{{{{cccccsssssss>>>>....uoo..       ",
"      w;5555wwww]]]]222afffxxxddyyeooot..       ",
"       fww]]]]22v9an[hmm[vyd$6y_!7o6t^u..       ",
"        }p22aa9fmmxddxhyyyy$$eeo6ttubb...       ",
"          ...88,66,^oeute6ju^,j..........       ",
"            .,,^^jj^^j^ttj^ttu^.........        ",
"         u$yxdxddyyyy$$$eoooo66t^^,....         ",
"         gxxamfmmxxdddyyyy$$eeot6jj.            ",
"              ....................              ",
"                 ............                   ",
"                                                ",
"                                                ",
"                                                ",
"                                                ",
"                                                ",
"                                                ",
"                                                ",
"                                                "};
