/* XPM */
static char * kcemu_c80_xpm[] = {
"48 48 149 2",
"  	c None",
". 	c #D7D6CE",
"+ 	c #EEEADE",
"@ 	c #E6E4DA",
"# 	c #DFDDD5",
"$ 	c #D6D2C6",
"% 	c #D1CEC6",
"& 	c #CECABE",
"* 	c #CEC6BE",
"= 	c #C6C6C0",
"- 	c #C4C0B8",
"; 	c #BAB6AF",
"> 	c #B0ADA4",
", 	c #9E9A92",
"' 	c #AAA6A0",
") 	c #A29F98",
"! 	c #878380",
"~ 	c #1D1E1D",
"{ 	c #1A1A1A",
"] 	c #151615",
"^ 	c #121212",
"/ 	c #0E0E0E",
"( 	c #817E7A",
"_ 	c #8E8B82",
": 	c #262726",
"< 	c #302F30",
"[ 	c #222222",
"} 	c #96928D",
"| 	c #70706B",
"1 	c #5E5E58",
"2 	c #545451",
"3 	c #4D4C49",
"4 	c #414040",
"5 	c #3A3A3A",
"6 	c #96968D",
"7 	c #020202",
"8 	c #797472",
"9 	c #595A56",
"0 	c #6D6863",
"a 	c #8E8E8E",
"b 	c #1C4A20",
"c 	c #10A01D",
"d 	c #0EB01D",
"e 	c #127B1B",
"f 	c #16441A",
"g 	c #0F9F1C",
"h 	c #0EAE1C",
"i 	c #107A1A",
"j 	c #103F15",
"k 	c #0E9E1B",
"l 	c #0E7717",
"m 	c #0A0A0A",
"n 	c #363636",
"o 	c #10991D",
"p 	c #19301B",
"q 	c #0F991C",
"r 	c #18301A",
"s 	c #142215",
"t 	c #0E9F1C",
"u 	c #0E971B",
"v 	c #112713",
"w 	c #0E1A0F",
"x 	c #3A4F3B",
"y 	c #138F1F",
"z 	c #191919",
"A 	c #182E1A",
"B 	c #10901C",
"C 	c #132E16",
"D 	c #10821A",
"E 	c #142B16",
"F 	c #0E8A1A",
"G 	c #0E2A10",
"H 	c #0C7F17",
"I 	c #235D29",
"J 	c #136A1B",
"K 	c #191B19",
"L 	c #16401A",
"M 	c #11851C",
"N 	c #191A1A",
"O 	c #14621B",
"P 	c #124F17",
"Q 	c #124C17",
"R 	c #116819",
"S 	c #0B4D11",
"T 	c #0B5A13",
"U 	c #000000",
"V 	c #1C7925",
"W 	c #16491A",
"X 	c #16461A",
"Y 	c #0EAB1C",
"Z 	c #141B15",
"` 	c #106E19",
" .	c #124617",
"..	c #0C7215",
"+.	c #0B360F",
"@.	c #159520",
"#.	c #1B2B1D",
"$.	c #0F9B1C",
"%.	c #0EAD1C",
"&.	c #191E1A",
"*.	c #108B1C",
"=.	c #16431A",
"-.	c #191C1A",
";.	c #0F9C1C",
">.	c #19211A",
",.	c #0F8F1B",
"'.	c #142415",
").	c #0D9519",
"!.	c #0A130B",
"~.	c #060606",
"{.	c #2E332F",
"].	c #109A1D",
"^.	c #0F9E1C",
"/.	c #10941C",
"(.	c #181D19",
"_.	c #0D9219",
":.	c #92837A",
"<.	c #214124",
"[.	c #118E1D",
"}.	c #141715",
"|.	c #163619",
"1.	c #108E1C",
"2.	c #191B1A",
"3.	c #15531B",
"4.	c #136F1B",
"5.	c #17361A",
"6.	c #108D1C",
"7.	c #0E5014",
"8.	c #0C6814",
"9.	c #202D21",
"0.	c #119E1E",
"a.	c #0FA11C",
"b.	c #19251A",
"c.	c #18281A",
"d.	c #0E9C1B",
"e.	c #0D8C18",
"f.	c #0A1A0B",
"g.	c #7E7A75",
"h.	c #A5766D",
"i.	c #9C948E",
"j.	c #8E8C86",
"k.	c #9E6A62",
"l.	c #8A965A",
"m.	c #96BA22",
"n.	c #8A9A3E",
"o.	c #526A66",
"p.	c #8A8662",
"q.	c #425252",
"r.	c #5A625A",
"                                                                                                ",
"                                                                                                ",
"                                                                                                ",
"                                                                                                ",
"                                                                                                ",
"                                                                                                ",
"                                                                                                ",
"                                                                                                ",
"              . + + + + + @ @ @ @ # # # . . . $ % % & & * = - - - ; ; > ,                       ",
"            . + + + + + @ @ @ @ # # # . . . $ % % & & * = - - - ; ; ; > ' ) !                   ",
"            + + ; ~ ~ ~ ~ ~ ~ ~ ~ ~ ~ ~ { { { { ] ] ] ] ] ] ] ] ^ ^ ^ / ( ) _                   ",
"            + + ~ : < : : : [ : : [ ~ ~ ~ ~ ~ { { { ] ] ] ^ ^ ^ ^ ^ ^ / / ) }                   ",
"            + + : < | | 1 2 2 3 3 4 5 < : [ ~ { ] ] ] ] ] ] ^ ^ ^ ^ / / / , 6 7                 ",
"            + + ~ < 8 9 4 4 4 [ [ : : : ~ { { { ] ] ] ] ] ] ^ ^ ^ / / / / , } 7                 ",
"            + @ ~ < 0 4 ~ [ ~ ~ { { { { { { { { { { ] ] ^ ^ ^ ^ ^ / / / / 6 a 7                 ",
"            @ @ ~ : 9 4 b c d d d e { { { { f g d d h i ^ j k d d h l / m } a 7                 ",
"            @ @ ~ : 2 n o p { { { { { { { { q r { { s t ] u v / / w k m m } _ 7                 ",
"            @ # : : 2 x y ~ z { { { { { { A B { { { C D E F ^ / / G H m m } _ 7                 ",
"            # # ~ : 3 I J K { { { { { { { L M N { N O P Q R ^ / / S T m m a ! 7 U               ",
"            # # ~ ~ 4 V W z { { { { { { z X d d d d Y Z `  .] / / ..+.m m _ ! 7 7               ",
"            # # [ : 5 @.#.{ { { { $.d %.&.*.=.{ { -.;.>.,.'.^ / m ).!.m ~._ ! 7 7               ",
"            # . ~ ~ {.].{ { { { { z { { &.^.{ { { >./.(.q ] ] / w _.m m ~.:.( 7 7               ",
"            . . { ~ <.[.}.{ { { { { { { |.1.2.z { 3.4.5.6.}.] / 7.8.m ~.~.! ( 7 7               ",
"            . $ { ~ 9.0.d d d a.{ z { { b.;.d d h B c.b.d.d d h e.f.~.~.~.! g.7 7               ",
"            $ % { { ~ ] ] ] { { { { { { { { { { { { { { ] ^ ^ m m ~.~.~.~.! g.7 7               ",
"            % % { ] { ] ] ] { { { { { { { { { { { { { ] ] ^ m m ~.~.~.~.~.( 8 7 7               ",
"            % & ] ] ] ] ] ] ] { { { { { { { { { { { ] ] m m m ~.~.~.~.~.7 g.8 7 7               ",
"            & & ] ] ] ] ] ] ] ] { { { { { { { { { ] ] m m m m ~.~.~.~.7 7 g.8 7 7               ",
"            & * ] ] ] ] ] ] ^ ] ] ] ] ] ] { { { ] ] m m m ~.~.~.~.~.7 7 7 8 8 7 7               ",
"            * = ] ] : : : [ : [ : : ~ : 5 5 < ~ ~ : { ~ : : ~ : [ ~ [ ] 7 8 8 7 7               ",
"            = - } ] ^ ^ ^ ^ ^ ^ / / / / / m m m m m m m ~.~.~.~.7 7 7 7 9 8 8 7 7               ",
"            > - ; ; ; ; > > > > ' ' ' ' ) ) ) , 6 6 6 a a a _ _ ! ! g.8 8 8 0 7 7               ",
"              6 > > ' ' ' ' ) ) h.i., j.k.:.} } k.h.! _ ( | ! l.m.n.8 | 0 1 9 7 7               ",
"                o.p.) ) , , i.6 } } a _ _ a :.! ! ! ! ( ( g.g.8 | 0 0 9 q.q.7 7 7               ",
"                    7 7 7 4 4 3 | | 3 1 8 g.9 0 g.| 2 9 1 3 2 7 7 7 7 7 7 7 7 7 7               ",
"                        7 3 3 1 1 2 2 1 1 2 1 0 0 2 1 0 0 9 1 7 7 7 7 7 7 7 7 7                 ",
"                  9 ( ! a _ a _ _ ! ! ! ! ( ( ( g.8 8 8 8 | | 0 1 1 3 7 7 7 7                   ",
"                  r.a a , } 6 } } a a _ _ _ ! ! ! ! ( ( g.g.8 0 | 2 2 7                         ",
"                            7 7 7 7 7 7 7 7 7 7 7 7 7 7 7 7 7 7 7 7                             ",
"                                  7 7 7 7 7 7 7 7 7 7 7 7 U U                                   ",
"                                                                                                ",
"                                                                                                ",
"                                                                                                ",
"                                                                                                ",
"                                                                                                ",
"                                                                                                ",
"                                                                                                ",
"                                                                                                "};
