/* XPM */
static char * kcemu_kramermc_xpm[] = {
"48 48 61 1",
" 	c None",
".	c #D7D6CE",
"+	c #EEEADE",
"@	c #E6E4DA",
"#	c #DFDDD5",
"$	c #D6D2C6",
"%	c #D1CEC6",
"&	c #CECABE",
"*	c #CEC6BE",
"=	c #C6C6C0",
"-	c #C4C0B8",
";	c #BAB6AF",
">	c #B0ADA4",
",	c #9E9A92",
"'	c #AAA6A0",
")	c #A29F98",
"!	c #878380",
"~	c #1D1E1D",
"{	c #1A1A1A",
"]	c #151615",
"^	c #121212",
"/	c #0E0E0E",
"(	c #817E7A",
"_	c #8E8B82",
":	c #262726",
"<	c #302F30",
"[	c #222222",
"}	c #96928D",
"|	c #02DB49",
"1	c #70706B",
"2	c #545451",
"3	c #4D4C49",
"4	c #414040",
"5	c #3A3A3A",
"6	c #96968D",
"7	c #020202",
"8	c #797472",
"9	c #595A56",
"0	c #6D6863",
"a	c #8E8E8E",
"b	c #0A0A0A",
"c	c #363636",
"d	c #1B1C1B",
"e	c #191B19",
"f	c #000000",
"g	c #191919",
"h	c #060606",
"i	c #92837A",
"j	c #7E7A75",
"k	c #A5766D",
"l	c #9C948E",
"m	c #8E8C86",
"n	c #9E6A62",
"o	c #8A965A",
"p	c #96BA22",
"q	c #8A9A3E",
"r	c #5E5E58",
"s	c #526A66",
"t	c #8A8662",
"u	c #425252",
"v	c #5A625A",
"                                                ",
"                                                ",
"                                                ",
"                                                ",
"                                                ",
"                                                ",
"                                                ",
"                                                ",
"       .+++++@@@@###...$%%&&*=---;;>,           ",
"      .+++++@@@@###...$%%&&*=---;;;>')!         ",
"      ++;~~~~~~~~~~~{{{{]]]]]]]]^^^/()_         ",
"      ++~:<:::[::[~~~~~{{{]]]^^^^^^//)}         ",
"      ++:|11|223345<:[~{]]]]]]^^^^///,67        ",
"      ++~|89|44[[:::~{{{]]]]]]^^^////,}7        ",
"      +@~|0|~[|~|{||{{||||]]^||^^|/|/6a7        ",
"      @@~||4[[||{{{{|{|{|{|]|^^|/||/b}a7        ",
"      @@~||c~d|{{{|||{|{|{|]||||/|/bb}_7        ",
"      @#:|2|:~|{{|{{|{|{|{|]|^^//|bbb}_7        ",
"      ##~|3<|e|{{|{{|{|{|{|]|]^|/|bbba!7f       ",
"      ##~|4<|g|{{{|||{|{|{|]]||//|bbb_!77       ",
"      ##[:5<~{{{{{{{{{{{{{{{]]^/bbbbh_!77       ",
"      #.~~<[{{{{{g{{{{{{{{{g{]]//bbbhi(77       ",
"      ..{~:~]{{{{|{{g|{g|||{{]]//bbhh!(77       ",
"      .${~[:~{{{{||{||g|{{{|]]^/bbhhh!j77       ",
"      $%{{~]]]{{{|{|{|{|{{{{]^^bbhhhh!j77       ",
"      %%{]{]]]{{{|{{{|{|{{{]]^bbhhhhh(877       ",
"      %&]]]]]]]{{|{{{|{|{{]]bbbhhhhh7j877       ",
"      &&]]]]]]]]{|{{{|{|{]]|bbbhhhh77j877       ",
"      &*]]]]]]^]]|]]]|{{|||bbhhhhh7778877       ",
"      *=]]:::[:[::~:55<~~:{~::~:[~[]78877       ",
"      =-}]^^^^^^/////bbbbbbbhhhh777798877       ",
"      >-;;;;>>>>''''))),666aaa__!!j888077       ",
"       6>>''''))kl,mni}}nk!_(1!opq810r977       ",
"        st)),,l6}}a__ai!!!!((jj81009uu777       ",
"          777443113r8j90j129r327777777777       ",
"            733rr22rr2r002r009r777777777        ",
"         9(!a_a__!!!!(((j8888110rr37777         ",
"         vaa,}6}}aa___!!!!((jj801227            ",
"              77777777777777777777              ",
"                 777777777777ff                 ",
"                                                ",
"                                                ",
"                                                ",
"                                                ",
"                                                ",
"                                                ",
"                                                ",
"                                                "};
