/* XPM */
static char * kcemu_ac1_xpm[] = {
"48 48 103 2",
"  	c None",
". 	c #D7D6CE",
"+ 	c #EEEADE",
"@ 	c #E6E4DA",
"# 	c #DFDDD5",
"$ 	c #D6D2C6",
"% 	c #D1CEC6",
"& 	c #CECABE",
"* 	c #CEC6BE",
"= 	c #C6C6C0",
"- 	c #C4C0B8",
"; 	c #BAB6AF",
"> 	c #B0ADA4",
", 	c #9E9A92",
"' 	c #AAA6A0",
") 	c #A29F98",
"! 	c #878380",
"~ 	c #1D1E1D",
"{ 	c #1A1A1A",
"] 	c #151615",
"^ 	c #121212",
"/ 	c #0E0E0E",
"( 	c #817E7A",
"_ 	c #8E8B82",
": 	c #262726",
"< 	c #302F30",
"[ 	c #222222",
"} 	c #96928D",
"| 	c #70706B",
"1 	c #5E5E58",
"2 	c #545451",
"3 	c #4D4C49",
"4 	c #414040",
"5 	c #3A3A3A",
"6 	c #96968D",
"7 	c #020202",
"8 	c #797472",
"9 	c #595A56",
"0 	c #6D6863",
"a 	c #8E8E8E",
"b 	c #114E1C",
"c 	c #02A622",
"d 	c #00B422",
"e 	c #059721",
"f 	c #15331B",
"g 	c #114C1C",
"h 	c #02A822",
"i 	c #02AA22",
"j 	c #162D1B",
"k 	c #102313",
"l 	c #00B823",
"m 	c #0D130E",
"n 	c #0A0A0A",
"o 	c #363636",
"p 	c #18201A",
"q 	c #01AF22",
"r 	c #10531D",
"s 	c #191D1A",
"t 	c #0A7A1F",
"u 	c #059420",
"v 	c #191A1A",
"w 	c #02A722",
"x 	c #0E611E",
"y 	c #18251A",
"z 	c #0E3615",
"A 	c #15371B",
"B 	c #18211A",
"C 	c #13401C",
"D 	c #00B622",
"E 	c #191B1A",
"F 	c #172B1B",
"G 	c #18241A",
"H 	c #103918",
"I 	c #143C1B",
"J 	c #191E1A",
"K 	c #000000",
"L 	c #133B1B",
"M 	c #060606",
"N 	c #00B322",
"O 	c #191919",
"P 	c #92837A",
"Q 	c #162A1A",
"R 	c #18231A",
"S 	c #0E5B1D",
"T 	c #17281A",
"U 	c #7E7A75",
"V 	c #114F1D",
"W 	c #02AB22",
"X 	c #131F15",
"Y 	c #08691B",
"Z 	c #064E13",
"` 	c #090B0A",
" .	c #A5766D",
"..	c #9C948E",
"+.	c #8E8C86",
"@.	c #9E6A62",
"#.	c #8A965A",
"$.	c #96BA22",
"%.	c #8A9A3E",
"&.	c #526A66",
"*.	c #8A8662",
"=.	c #425252",
"-.	c #5A625A",
"                                                                                                ",
"                                                                                                ",
"                                                                                                ",
"                                                                                                ",
"                                                                                                ",
"                                                                                                ",
"                                                                                                ",
"                                                                                                ",
"              . + + + + + @ @ @ @ # # # . . . $ % % & & * = - - - ; ; > ,                       ",
"            . + + + + + @ @ @ @ # # # . . . $ % % & & * = - - - ; ; ; > ' ) !                   ",
"            + + ; ~ ~ ~ ~ ~ ~ ~ ~ ~ ~ ~ { { { { ] ] ] ] ] ] ] ] ^ ^ ^ / ( ) _                   ",
"            + + ~ : < : : : [ : : [ ~ ~ ~ ~ ~ { { { ] ] ] ^ ^ ^ ^ ^ ^ / / ) }                   ",
"            + + : < | | 1 2 2 3 3 4 5 < : [ ~ { ] ] ] ] ] ] ^ ^ ^ ^ / / / , 6 7                 ",
"            + + ~ < 8 9 4 4 4 [ [ : : : ~ { { { ] ] ] ] ] ] ^ ^ ^ / / / / , } 7                 ",
"            + @ ~ < 0 4 ~ [ ~ ~ { { { { { { { { { { ] ] ^ ^ ^ ^ ^ / / / / 6 a 7                 ",
"            @ @ ~ : 9 4 [ [ b c d e f { { g h d i j ] ] k d l m / / / / n } a 7                 ",
"            @ @ ~ : 2 o ~ p q r s t u { v w x v y { { ] ] z l m / / / n n } _ 7                 ",
"            @ # : : 2 4 : A l B { C D E F l G { { { { ] ] H l m / / n n n } _ 7                 ",
"            # # ~ : 3 < { I l J { I l J A l J { { { { ] ] H l m / n n n n a ! 7 K               ",
"            # # ~ ~ 4 < { I l J { I l J L l J { { { { { ] H l m / n n n n _ ! 7 7               ",
"            # # [ : 5 < ~ I l J { I l J I l J { { { { { { H l m / n n n M _ ! 7 7               ",
"            # . ~ ~ < [ { I l N N d l J A l J { { { { O { H l m / n n n M P ( 7 7               ",
"            . . { ~ : ~ ] I l J { I l J Q l R { { { { { { H l m / n n M M ! ( 7 7               ",
"            . $ { ~ [ : ~ I l J { L l J v w S { T { { { { H l m / n M M M ! U 7 7               ",
"            $ % { { ~ ] ] H l J { I l J { V W d w j { { X Y l Z ` M M M M ! U 7 7               ",
"            % % { ] { ] ] ] { { { { { { { { { { { { { ] ] ^ n n M M M M M ( 8 7 7               ",
"            % & ] ] ] ] ] ] ] { { { { { { { { { { { ] ] n n n M M M M M 7 U 8 7 7               ",
"            & & ] ] ] ] ] ] ] ] { { { { { { { { { ] ] n n n n M M M M 7 7 U 8 7 7               ",
"            & * ] ] ] ] ] ] ^ ] ] ] ] ] ] { { { ] ] n n n M M M M M 7 7 7 8 8 7 7               ",
"            * = ] ] : : : [ : [ : : ~ : 5 5 < ~ ~ : { ~ : : ~ : [ ~ [ ] 7 8 8 7 7               ",
"            = - } ] ^ ^ ^ ^ ^ ^ / / / / / n n n n n n n M M M M 7 7 7 7 9 8 8 7 7               ",
"            > - ; ; ; ; > > > > ' ' ' ' ) ) ) , 6 6 6 a a a _ _ ! ! U 8 8 8 0 7 7               ",
"              6 > > ' ' ' ' ) )  ..., +.@.P } } @. .! _ ( | ! #.$.%.8 | 0 1 9 7 7               ",
"                &.*.) ) , , ..6 } } a _ _ a P ! ! ! ! ( ( U U 8 | 0 0 9 =.=.7 7 7               ",
"                    7 7 7 4 4 3 | | 3 1 8 U 9 0 U | 2 9 1 3 2 7 7 7 7 7 7 7 7 7 7               ",
"                        7 3 3 1 1 2 2 1 1 2 1 0 0 2 1 0 0 9 1 7 7 7 7 7 7 7 7 7                 ",
"                  9 ( ! a _ a _ _ ! ! ! ! ( ( ( U 8 8 8 8 | | 0 1 1 3 7 7 7 7                   ",
"                  -.a a , } 6 } } a a _ _ _ ! ! ! ! ( ( U U 8 0 | 2 2 7                         ",
"                            7 7 7 7 7 7 7 7 7 7 7 7 7 7 7 7 7 7 7 7                             ",
"                                  7 7 7 7 7 7 7 7 7 7 7 7 K K                                   ",
"                                                                                                ",
"                                                                                                ",
"                                                                                                ",
"                                                                                                ",
"                                                                                                ",
"                                                                                                ",
"                                                                                                ",
"                                                                                                "};
