/* XPM */
static char * kcemu_hueblermc_xpm[] = {
"48 48 87 1",
" 	c None",
".	c #D7D6CE",
"+	c #EEEADE",
"@	c #E6E4DA",
"#	c #DFDDD5",
"$	c #D6D2C6",
"%	c #D1CEC6",
"&	c #CECABE",
"*	c #CEC6BE",
"=	c #C6C6C0",
"-	c #C4C0B8",
";	c #BAB6AF",
">	c #B0ADA4",
",	c #9E9A92",
"'	c #AAA6A0",
")	c #A29F98",
"!	c #878380",
"~	c #1D1E1D",
"{	c #1A1A1A",
"]	c #151615",
"^	c #121212",
"/	c #0E0E0E",
"(	c #817E7A",
"_	c #8E8B82",
":	c #262726",
"<	c #302F30",
"[	c #222222",
"}	c #96928D",
"|	c #70706B",
"1	c #5E5E58",
"2	c #545451",
"3	c #4D4C49",
"4	c #414040",
"5	c #3A3A3A",
"6	c #96968D",
"7	c #020202",
"8	c #797472",
"9	c #595A56",
"0	c #6D6863",
"a	c #8E8E8E",
"b	c #0FA21C",
"c	c #127C1B",
"d	c #0EA81C",
"e	c #0EA91C",
"f	c #0E210F",
"g	c #0A0A0A",
"h	c #363636",
"i	c #18301A",
"j	c #13651B",
"k	c #3A4F3B",
"l	c #0EA21C",
"m	c #15571B",
"n	c #173C1A",
"o	c #235D29",
"p	c #191B19",
"q	c #12761B",
"r	c #191C1A",
"s	c #000000",
"t	c #191919",
"u	c #0EA71C",
"v	c #191B1A",
"w	c #12771B",
"x	c #0EA61C",
"y	c #0E8719",
"z	c #17381A",
"A	c #14591B",
"B	c #060606",
"C	c #2E332F",
"D	c #14601B",
"E	c #92837A",
"F	c #214124",
"G	c #202D21",
"H	c #191E1A",
"I	c #13711B",
"J	c #0E2D10",
"K	c #7E7A75",
"L	c #A5766D",
"M	c #9C948E",
"N	c #8E8C86",
"O	c #9E6A62",
"P	c #8A965A",
"Q	c #96BA22",
"R	c #8A9A3E",
"S	c #526A66",
"T	c #8A8662",
"U	c #425252",
"V	c #5A625A",
"                                                ",
"                                                ",
"                                                ",
"                                                ",
"                                                ",
"                                                ",
"                                                ",
"                                                ",
"       .+++++@@@@###...$%%&&*=---;;>,           ",
"      .+++++@@@@###...$%%&&*=---;;;>')!         ",
"      ++;~~~~~~~~~~~{{{{]]]]]]]]^^^/()_         ",
"      ++~:<:::[::[~~~~~{{{]]]^^^^^^//)}         ",
"      ++:<||1223345<:[~{]]]]]]^^^^///,67        ",
"      ++~<89444[[:::~{{{]]]]]]^^^////,}7        ",
"      +@~<04~[~~{{{{{{{{{{]]{{{^^////6a7        ",
"      @@~:94{{b{{{{b{{{{c{{deeeef///g}a7        ",
"      @@~:2h{{b{{{{b{{{ij{{b{{{////gg}_7        ",
"      @#::2k{{l{{{{b{{{mn{{b{{^////gg}_7        ",
"      ##~:3o{pb{{{{b{{{qr{{b{{^////gga!7s       ",
"      ##~~4{{tduuuudt{vw{{{duuxy///gg_!77       ",
"      ##[:5{{{b{{{{b{{zA{r{b{{^///ggB_!77       ",
"      #.~~C{{{b{{t{b{{Di{{{b{{]///ggBE(77       ",
"      ..{~F{{{b{{{{b{{qt{{{b{{]///gBB!(77       ",
"      .${~G{{{b{{t{b{HI{{{{deeeeJgBBB!K77       ",
"      $%{{~]]]{{{{{{{{{{{{{{{^^ggBBBB!K77       ",
"      %%{]{]]]{{{{{{{{{{{{{]]^ggBBBBB(877       ",
"      %&]]]]]]]{{{{{{{{{{{]]gggBBBBB7K877       ",
"      &&]]]]]]]]{{{{{{{{{]]ggggBBBB77K877       ",
"      &*]]]]]]^]]]]]]{{{]]gggBBBBB7778877       ",
"      *=]]:::[:[::~:55<~~:{~::~:[~[]78877       ",
"      =-}]^^^^^^/////gggggggBBBB777798877       ",
"      >-;;;;>>>>''''))),666aaa__!!K888077       ",
"       6>>''''))LM,NOE}}OL!_(|!PQR8|01977       ",
"        ST)),,M6}}a__aE!!!!((KK8|009UU777       ",
"          777443||318K90K|291327777777777       ",
"            7331122112100210091777777777        ",
"         9(!a_a__!!!!(((K8888||01137777         ",
"         Vaa,}6}}aa___!!!!((KK80|227            ",
"              77777777777777777777              ",
"                 777777777777ss                 ",
"                                                ",
"                                                ",
"                                                ",
"                                                ",
"                                                ",
"                                                ",
"                                                ",
"                                                "};
