/* XPM */
static char * kcemu_xpm[] = {
"48 48 335 2",
"  	c None",
". 	c #D7D7CF",
"+ 	c #EFEBDF",
"@ 	c #E7E7DF",
"# 	c #E7E3D7",
"$ 	c #DFDFD7",
"% 	c #DFDBD7",
"& 	c #DFD7CF",
"* 	c #D7D3C7",
"= 	c #D7CFC7",
"- 	c #CFCFC7",
"; 	c #CFCBBE",
"> 	c #CFC7BE",
", 	c #C7C7BE",
"' 	c #C7C3BE",
") 	c #C7BEB6",
"! 	c #BDBDB5",
"~ 	c #BCB8B4",
"{ 	c #BBB7AB",
"] 	c #B6AEA7",
"^ 	c #9B9B94",
"/ 	c #BEBEB6",
"( 	c #BEBAB6",
"_ 	c #BCB8AC",
": 	c #B9B1A9",
"< 	c #AEAEA6",
"[ 	c #A9A6A2",
"} 	c #A4A196",
"| 	c #83807C",
"1 	c #B6B2B6",
"2 	c #1F1F1F",
"3 	c #1E1E1E",
"4 	c #1B1C1B",
"5 	c #1B1B1B",
"6 	c #191B19",
"7 	c #191919",
"8 	c #171717",
"9 	c #141614",
"0 	c #141414",
"a 	c #131413",
"b 	c #131313",
"c 	c #121112",
"d 	c #111111",
"e 	c #0F0F0F",
"f 	c #7C7C7C",
"g 	c #A39C95",
"h 	c #918A83",
"i 	c #252525",
"j 	c #363336",
"k 	c #2A292A",
"l 	c #272727",
"m 	c #252425",
"n 	c #242224",
"o 	c #242424",
"p 	c #131113",
"q 	c #101010",
"r 	c #0F0E0F",
"s 	c #0F0D0F",
"t 	c #96938F",
"u 	c #313131",
"v 	c #727272",
"w 	c #6D6D6D",
"x 	c #5E5E5E",
"y 	c #565556",
"z 	c #4F504F",
"A 	c #4F4F4F",
"B 	c #4A4A4A",
"C 	c #424242",
"D 	c #393939",
"E 	c #2E2E2E",
"F 	c #262826",
"G 	c #202220",
"H 	c #1C1C1C",
"I 	c #100F10",
"J 	c #0D0D0D",
"K 	c #9B9894",
"L 	c #979489",
"M 	c #000000",
"N 	c #2D2D2D",
"O 	c #757675",
"P 	c #5B5B5B",
"Q 	c #434343",
"R 	c #3D3C3D",
"S 	c #202120",
"T 	c #1F211F",
"U 	c #B18E6B",
"V 	c #B08D6A",
"W 	c #100E10",
"X 	c #9C988D",
"Y 	c #909089",
"Z 	c #2C2C2C",
"` 	c #666666",
" .	c #3F3F3F",
"..	c #0A0C0A",
"+.	c #95958D",
"@.	c #908D89",
"#.	c #5A595A",
"$.	c #AF8C6A",
"%.	c #0B0C0B",
"&.	c #0A0A0A",
"*.	c #95918D",
"=.	c #8F8C88",
"-.	c #565656",
";.	c #3A3A3A",
">.	c #AF8C69",
",.	c #0B0D0B",
"'.	c #0B0B0B",
").	c #94908D",
"!.	c #8F8881",
"~.	c #E7DFD7",
"{.	c #545354",
"].	c #403F40",
"^.	c #090A09",
"/.	c #958D86",
"(.	c #898982",
"_.	c #494949",
":.	c #2E2F2E",
"<.	c #090909",
"[.	c #8D8D86",
"}.	c #898682",
"|.	c #3E3F3E",
"1.	c #6BB1B1",
"2.	c #6AB0B0",
"3.	c #69AFAF",
"4.	c #8D8A86",
"5.	c #363636",
"6.	c #B6B66E",
"7.	c #090709",
"8.	c #88827B",
"9.	c #DFDBCF",
"0.	c #2C2E2C",
"a.	c #090809",
"b.	c #060606",
"c.	c #8D867F",
"d.	c #827E7B",
"e.	c #252725",
"f.	c #1D1D1D",
"g.	c #0A080A",
"h.	c #070707",
"i.	c #86837F",
"j.	c #827F7B",
"k.	c #202020",
"l.	c #B89470",
"m.	c #B7936E",
"n.	c #B6926E",
"o.	c #B16BB1",
"p.	c #B06BB0",
"q.	c #AF6AAF",
"r.	c #AF69AF",
"s.	c #827B7B",
"t.	c #B7B76E",
"u.	c #070607",
"v.	c #040404",
"w.	c #86827E",
"x.	c #7B7B74",
"y.	c #181818",
"z.	c #7E7E77",
"A.	c #7A7773",
"B.	c #AE68AE",
"C.	c #050505",
"D.	c #040304",
"E.	c #7E7A77",
"F.	c #7B7774",
"G.	c #B6B66D",
"H.	c #020202",
"I.	c #7D7976",
"J.	c #797373",
"K.	c #050305",
"L.	c #7C7575",
"M.	c #797272",
"N.	c #272627",
"O.	c #1E1F1E",
"P.	c #232123",
"Q.	c #212121",
"R.	c #151515",
"S.	c #020102",
"T.	c #7B7474",
"U.	c #C6C6BD",
"V.	c #C7C3B6",
"W.	c #959195",
"X.	c #121312",
"Y.	c #121212",
"Z.	c #555955",
"`.	c #7A7373",
" +	c #787171",
".+	c #B3AFA3",
"++	c #C3BFB2",
"@+	c #BABAB2",
"#+	c #BBB7B3",
"$+	c #BAB2AA",
"%+	c #B1B1A9",
"&+	c #B1ADA9",
"*+	c #B0ACA0",
"=+	c #A8A8A0",
"-+	c #A9A5A1",
";+	c #A9A199",
">+	c #A19D99",
",+	c #A29E9A",
"'+	c #A09991",
")+	c #999591",
"!+	c #9A9692",
"~+	c #918D8A",
"{+	c #918A8A",
"]+	c #898981",
"^+	c #87837F",
"/+	c #85817D",
"(+	c #817A7A",
"_+	c #7D7676",
":+	c #767070",
"<+	c #64645D",
"[+	c #9B978C",
"}+	c #B2AEAA",
"|+	c #B2AEA3",
"1+	c #A9A9A2",
"2+	c #A8A499",
"3+	c #A7A098",
"4+	c #9F9F98",
"5+	c #AF7B6F",
"6+	c #A78A82",
"7+	c #A19992",
"8+	c #918D82",
"9+	c #A76F68",
"0+	c #997C6F",
"a+	c #91918A",
"b+	c #98918A",
"c+	c #9F6B60",
"d+	c #987B6F",
"e+	c #8A8682",
"f+	c #928A8A",
"g+	c #6F6F68",
"h+	c #83837C",
"i+	c #899458",
"j+	c #96BB23",
"k+	c #8A9B3F",
"l+	c #766F6F",
"m+	c #726B6B",
"n+	c #5F5F59",
"o+	c #585852",
"p+	c #536B67",
"q+	c #888561",
"r+	c #9D9D96",
"s+	c #9D9A96",
"t+	c #9C988E",
"u+	c #9D968F",
"v+	c #94948D",
"w+	c #96928F",
"x+	c #95928E",
"y+	c #8F8F88",
"z+	c #8E8B87",
"A+	c #8E8780",
"B+	c #888481",
"C+	c #86827F",
"D+	c #888181",
"E+	c #878080",
"F+	c #817D7A",
"G+	c #807D79",
"H+	c #807979",
"I+	c #7A7A73",
"J+	c #75726E",
"K+	c #73706C",
"L+	c #6E6868",
"M+	c #6D6767",
"N+	c #5A5A53",
"O+	c #415252",
"P+	c #415353",
"Q+	c #414441",
"R+	c #41413B",
"S+	c #4D4D47",
"T+	c #726F6C",
"U+	c #726D61",
"V+	c #4E4E48",
"W+	c #5C5C55",
"X+	c #79766D",
"Y+	c #79796D",
"Z+	c #5B5B54",
"`+	c #6C655B",
" @	c #78786C",
".@	c #72726C",
"+@	c #55554E",
"@@	c #5C5855",
"#@	c #4E4A48",
"$@	c #53504D",
"%@	c #524F4B",
"&@	c #4B4B45",
"*@	c #52524C",
"=@	c #525652",
"-@	c #69695F",
";@	c #696259",
">@	c #535653",
",@	c #5F5C52",
"'@	c #706960",
")@	c #706A6A",
"!@	c #595952",
"~@	c #5D5F57",
"{@	c #515956",
"]@	c #7F7F78",
"^@	c #85857F",
"/@	c #938F85",
"(@	c #928B84",
"_@	c #8D8D87",
":@	c #8D8986",
"<@	c #8D8B80",
"[@	c #86867F",
"}@	c #878480",
"|@	c #867F79",
"1@	c #7E7C78",
"2@	c #807C79",
"3@	c #7F7979",
"4@	c #797773",
"5@	c #797673",
"6@	c #79736D",
"7@	c #73736D",
"8@	c #6E6C68",
"9@	c #696663",
"0@	c #5E5E55",
"a@	c #605F58",
"b@	c #544F4B",
"c@	c #596259",
"d@	c #878E87",
"e@	c #8E8E87",
"f@	c #9C998F",
"g@	c #9A938D",
"h@	c #95958F",
"i@	c #949287",
"j@	c #969389",
"k@	c #8F8B88",
"l@	c #8E8B80",
"m@	c #898282",
"n@	c #817A73",
"o@	c #797972",
"p@	c #76736F",
"q@	c #6F6B69",
"r@	c #6E6C63",
"s@	c #54504C",
"t@	c #56524E",
"                                                                                                ",
"                                                                                                ",
"                                                                                                ",
"                                                                                                ",
"                                                                                                ",
"                                                                                                ",
"                                                                                                ",
"                                                                                                ",
"              . + + + + + @ @ # # $ $ % & . . * = - ; ; > , ' ) ! ~ { ] ^                       ",
"            . + + + + + @ @ # # $ $ % & . . * - - ; ; > , ' ) / ( _ : < [ } |                   ",
"            + + 1 2 2 2 2 2 2 3 3 3 4 4 5 6 7 7 8 8 8 8 9 0 a a b c d e f g h                   ",
"            + + 2 i j k l m n o i n 3 3 3 4 4 7 7 7 0 a a b p b c c q r s g t                   ",
"            + + m u v w x y z A B C D E F G H 7 8 8 9 0 a a b p c q I r J K L M                 ",
"            + + 2 N O P Q C R S T l l l 3 7 7 U U 8 9 0 a V V p c I W J J X Y M                 ",
"            + @ 2 Z `  .3 n 4 4 5 6 6 7 7 7 7 U U U V V V V V q q I J J ..+.@.M                 ",
"            @ @ 2 k #.C n T 7 7 7 7 7 7 7 U U 7 7 U V V V p q $.$.J J %.&.*.=.M                 ",
"            # # 2 m -.;.4 4 7 7 7 7 7 7 7 U U 7 7 U V V V p p $.>.J ,.'.&.).!.M                 ",
"            # ~.o l {.].i 2 7 7 7 7 7 7 7 7 7 U U U V V V V V J J ,.'.'.^./.(.M                 ",
"            ~.$ 3 o _.:.5 6 7 7 7 7 7 7 7 7 7 7 7 7 7 9 9 9 p J J '.'.^.<.[.}.M M               ",
"            $ % 3 2 |.N 6 7 7 7 8 7 7 7 7 7 1.1.1.1.1.2.2.2.2.3.J '.&.<.<.4.}.M M               ",
"            % $ T o 5.E 3 7 6.7 7 7 7 7 7 1.7 7 1.1.1.1.2.2.p J 3.&.&.<.7.4.8.M M               ",
"            9.. 4 3 0.G 7 6.6.6.7 7 7 7 7 7 1.1.1.1.1.1.1.2.2.3.J &.&.a.b.c.d.M M               ",
"            . . 5 3 e.f.8 7 7 7 7 7 7 7 7 7 7 7 1.1.1.1.1.2.9 J J &.g.h.b.i.j.M M               ",
"            . * 6 4 k.l.m.n.n.n.n.n.7 7 7 7 o.o.o.o.o.o.p.p.q.r.&.g.h.h.b.i.s.M M               ",
"            * = 6 7 t.6.6.6.6.6.6.6.6.7 7 7 o.o.o.o.o.o.p.r.q.r.g.h.h.u.v.w.x.M M               ",
"            = - 7 8 y.n.n.n.n.n.n.n.7 7 o.o.o.o.7 7 7 9 9 q r.r.h.h.u.v.v.z.A.M M               ",
"            - ; 8 8 8 9 9 9 9 7 7 7 7 7 7 7 7 7 7 7 9 9 &.&.r.B.B.B.C.v.D.E.F.M M               ",
"            ; ; 8 8 9 9 0 G.G.6.7 7 7 7 7 7 7 7 7 9 9 &.&.&.&.h.u.C.C.D.H.I.J.M M               ",
"            ; > 8 9 9 0 0 a G.9 9 9 9 9 9 7 7 7 9 9 &.&.&.h.h.u.C.C.K.H.H.L.M.M M               ",
"            > , 9 9 m N.N.n i T k m 2 l D D Z 3 4 i 5 2 m o O.o P.H Q.R.S.T.M.M M               ",
"            U.V.W.0 X.X.Y.c c q I I J J ,.'.'.&.&.&.g.g.h.u.C.v.D.H.H.S.Z.`. +M M               ",
"            .+++@+#+{ $+%+&+*+*+=+[ -+;+>+>+,+'+)+)+!+~+~+~+{+]+^+/+(+_+`.:+<+M M               ",
"              [+}+|+1+1+-+2+3+4+5+6+7+8+9+0+a+b+c+d+e+f+j.g+h+i+j+k+M.l+m+n+o+M M               ",
"                p+q+r+r+s+t+u+v+w+x+y+z+z+=.A+B+C+D+E+F+G+H+I+J+K+L+M+N+O+P+M M M               ",
"                    M M M Q+R+S+T+U+V+W+X+Y+Z+`+ @.@+@@@W+#@$@M M M M M M M M M M               ",
"                        M %@&@n+n+*@*@n+n+=@n+-@;@>@,@'@)@!@~@M M M M M M M M M                 ",
"                  {@]@^@/@(@_@:@<@[@}@i.i.|@1@2@3@4@5@A.6@7@8@9@0@a@b@M M M M                   ",
"                  c@d@e@f@g@h@i@j@e@e@k@l@!.i.B+E+m@G+G+n@o@p@q@r@s@t@M                         ",
"                            M M M M M M M M M M M M M M M M M M M M                             ",
"                                  M M M M M M M M M M M M M M                                   ",
"                                                                                                ",
"                                                                                                ",
"                                                                                                ",
"                                                                                                ",
"                                                                                                ",
"                                                                                                ",
"                                                                                                ",
"                                                                                                "};
