/* XPM */
static char * kcemu_lc80_xpm[] = {
"48 48 312 2",
"  	c None",
". 	c #D7D7CF",
"+ 	c #EFEBDF",
"@ 	c #E7E7DF",
"# 	c #E7E3D7",
"$ 	c #DFDFD7",
"% 	c #DFDBD7",
"& 	c #DFD7CF",
"* 	c #D7D3C7",
"= 	c #D7CFC7",
"- 	c #CFCFC7",
"; 	c #CFCBBE",
"> 	c #CFC7BE",
", 	c #C7C7BE",
"' 	c #C7C3BE",
") 	c #C7BEB6",
"! 	c #BDBDB5",
"~ 	c #BCB8B4",
"{ 	c #BBB7AB",
"] 	c #B6AEA7",
"^ 	c #9B9B94",
"/ 	c #BEBEB6",
"( 	c #BEBAB6",
"_ 	c #BCB8AC",
": 	c #B9B1A9",
"< 	c #AEAEA6",
"[ 	c #A9A6A2",
"} 	c #A4A196",
"| 	c #83807C",
"1 	c #B6B2B6",
"2 	c #1F1F1F",
"3 	c #1E1E1E",
"4 	c #1B1C1B",
"5 	c #1B1B1B",
"6 	c #191B19",
"7 	c #191919",
"8 	c #171717",
"9 	c #141614",
"0 	c #141414",
"a 	c #131413",
"b 	c #131313",
"c 	c #121112",
"d 	c #111111",
"e 	c #0F0F0F",
"f 	c #7C7C7C",
"g 	c #A39C95",
"h 	c #918A83",
"i 	c #252525",
"j 	c #363336",
"k 	c #2A292A",
"l 	c #272727",
"m 	c #252425",
"n 	c #242224",
"o 	c #242424",
"p 	c #131113",
"q 	c #101010",
"r 	c #0F0E0F",
"s 	c #0F0D0F",
"t 	c #96938F",
"u 	c #313131",
"v 	c #727272",
"w 	c #6D6D6D",
"x 	c #5E5E5E",
"y 	c #565556",
"z 	c #4F504F",
"A 	c #4F4F4F",
"B 	c #4A4A4A",
"C 	c #424242",
"D 	c #393939",
"E 	c #2E2E2E",
"F 	c #262826",
"G 	c #202220",
"H 	c #1C1C1C",
"I 	c #100F10",
"J 	c #0D0D0D",
"K 	c #9B9894",
"L 	c #979489",
"M 	c #000000",
"N 	c #2D2D2D",
"O 	c #757675",
"P 	c #5B5B5B",
"Q 	c #434343",
"R 	c #3D3C3D",
"S 	c #202120",
"T 	c #1F211F",
"U 	c #100E10",
"V 	c #9C988D",
"W 	c #909089",
"X 	c #2C2C2C",
"Y 	c #666666",
"Z 	c #3F3F3F",
"` 	c #199600",
" .	c #1BCC00",
"..	c #0A0C0A",
"+.	c #95958D",
"@.	c #908D89",
"#.	c #5A595A",
"$.	c #0A0A0A",
"%.	c #95918D",
"&.	c #8F8C88",
"*.	c #565656",
"=.	c #0B0D0B",
"-.	c #94908D",
";.	c #8F8881",
">.	c #E7DFD7",
",.	c #545354",
"'.	c #0B0B0B",
").	c #090A09",
"!.	c #958D86",
"~.	c #898982",
"{.	c #494949",
"].	c #090909",
"^.	c #8D8D86",
"/.	c #898682",
"(.	c #3E3F3E",
"_.	c #8D8A86",
":.	c #090709",
"<.	c #88827B",
"[.	c #DFDBCF",
"}.	c #090809",
"|.	c #060606",
"1.	c #8D867F",
"2.	c #827E7B",
"3.	c #1D1D1D",
"4.	c #070707",
"5.	c #86837F",
"6.	c #827F7B",
"7.	c #262426",
"8.	c #0A080A",
"9.	c #827B7B",
"0.	c #070607",
"a.	c #040404",
"b.	c #86827E",
"c.	c #7B7B74",
"d.	c #181818",
"e.	c #7E7E77",
"f.	c #7A7773",
"g.	c #050505",
"h.	c #040304",
"i.	c #7E7A77",
"j.	c #7B7774",
"k.	c #020202",
"l.	c #7D7976",
"m.	c #797373",
"n.	c #050305",
"o.	c #7C7575",
"p.	c #797272",
"q.	c #272627",
"r.	c #1E1F1E",
"s.	c #232123",
"t.	c #212121",
"u.	c #151515",
"v.	c #020102",
"w.	c #7B7474",
"x.	c #C6C6BD",
"y.	c #C7C3B6",
"z.	c #959195",
"A.	c #121312",
"B.	c #121212",
"C.	c #555955",
"D.	c #7A7373",
"E.	c #787171",
"F.	c #B3AFA3",
"G.	c #C3BFB2",
"H.	c #BABAB2",
"I.	c #BBB7B3",
"J.	c #BAB2AA",
"K.	c #B1B1A9",
"L.	c #B1ADA9",
"M.	c #B0ACA0",
"N.	c #A8A8A0",
"O.	c #A9A5A1",
"P.	c #A9A199",
"Q.	c #A19D99",
"R.	c #A29E9A",
"S.	c #A09991",
"T.	c #999591",
"U.	c #9A9692",
"V.	c #918D8A",
"W.	c #918A8A",
"X.	c #898981",
"Y.	c #87837F",
"Z.	c #85817D",
"`.	c #817A7A",
" +	c #7D7676",
".+	c #767070",
"++	c #64645D",
"@+	c #9B978C",
"#+	c #B2AEAA",
"$+	c #B2AEA3",
"%+	c #A9A9A2",
"&+	c #A8A499",
"*+	c #A7A098",
"=+	c #9F9F98",
"-+	c #AF7B6F",
";+	c #A78A82",
">+	c #A19992",
",+	c #918D82",
"'+	c #A76F68",
")+	c #997C6F",
"!+	c #91918A",
"~+	c #98918A",
"{+	c #9F6B60",
"]+	c #987B6F",
"^+	c #8A8682",
"/+	c #928A8A",
"(+	c #6F6F68",
"_+	c #83837C",
":+	c #899458",
"<+	c #96BB23",
"[+	c #8A9B3F",
"}+	c #766F6F",
"|+	c #726B6B",
"1+	c #5F5F59",
"2+	c #585852",
"3+	c #536B67",
"4+	c #888561",
"5+	c #9D9D96",
"6+	c #9D9A96",
"7+	c #9C988E",
"8+	c #9D968F",
"9+	c #94948D",
"0+	c #96928F",
"a+	c #95928E",
"b+	c #8F8F88",
"c+	c #8E8B87",
"d+	c #8E8780",
"e+	c #888481",
"f+	c #86827F",
"g+	c #888181",
"h+	c #878080",
"i+	c #817D7A",
"j+	c #807D79",
"k+	c #807979",
"l+	c #7A7A73",
"m+	c #75726E",
"n+	c #73706C",
"o+	c #6E6868",
"p+	c #6D6767",
"q+	c #5A5A53",
"r+	c #415252",
"s+	c #415353",
"t+	c #414441",
"u+	c #41413B",
"v+	c #4D4D47",
"w+	c #726F6C",
"x+	c #726D61",
"y+	c #4E4E48",
"z+	c #5C5C55",
"A+	c #79766D",
"B+	c #79796D",
"C+	c #5B5B54",
"D+	c #6C655B",
"E+	c #78786C",
"F+	c #72726C",
"G+	c #55554E",
"H+	c #5C5855",
"I+	c #4E4A48",
"J+	c #53504D",
"K+	c #524F4B",
"L+	c #4B4B45",
"M+	c #52524C",
"N+	c #525652",
"O+	c #69695F",
"P+	c #696259",
"Q+	c #535653",
"R+	c #5F5C52",
"S+	c #706960",
"T+	c #706A6A",
"U+	c #595952",
"V+	c #5D5F57",
"W+	c #515956",
"X+	c #7F7F78",
"Y+	c #85857F",
"Z+	c #938F85",
"`+	c #928B84",
" @	c #8D8D87",
".@	c #8D8986",
"+@	c #8D8B80",
"@@	c #86867F",
"#@	c #878480",
"$@	c #867F79",
"%@	c #7E7C78",
"&@	c #807C79",
"*@	c #7F7979",
"=@	c #797773",
"-@	c #797673",
";@	c #79736D",
">@	c #73736D",
",@	c #6E6C68",
"'@	c #696663",
")@	c #5E5E55",
"!@	c #605F58",
"~@	c #544F4B",
"{@	c #596259",
"]@	c #878E87",
"^@	c #8E8E87",
"/@	c #9C998F",
"(@	c #9A938D",
"_@	c #95958F",
":@	c #949287",
"<@	c #969389",
"[@	c #8F8B88",
"}@	c #8E8B80",
"|@	c #898282",
"1@	c #817A73",
"2@	c #797972",
"3@	c #76736F",
"4@	c #6F6B69",
"5@	c #6E6C63",
"6@	c #54504C",
"7@	c #56524E",
"                                                                                                ",
"                                                                                                ",
"                                                                                                ",
"                                                                                                ",
"                                                                                                ",
"                                                                                                ",
"                                                                                                ",
"                                                                                                ",
"              . + + + + + @ @ # # $ $ % & . . * = - ; ; > , ' ) ! ~ { ] ^                       ",
"            . + + + + + @ @ # # $ $ % & . . * - - ; ; > , ' ) / ( _ : < [ } |                   ",
"            + + 1 2 2 2 2 2 2 3 3 3 4 4 5 6 7 7 8 8 8 8 9 0 a a b c d e f g h                   ",
"            + + 2 i j k l m n o i n 3 3 3 4 4 7 7 7 0 a a b p b c c q r s g t                   ",
"            + + m u v w x y z A B C D E F G H 7 8 8 9 0 a a b p c q I r J K L M                 ",
"            + + 2 N O P Q C R S T l l l 3 7 7 7 8 8 9 0 a a b p c I U J J V W M                 ",
"            + @ 2 X Y Z 3 n 4 4 5 `  .` 7 7 7 7 7 7 `  .` p p q `  .` J ..+.@.M                 ",
"            @ @ 2 k #. .n T 7 7  .7 7 7 7 7 7 7 7  .9 9 p  .q  .I J J  .$.%.&.M                 ",
"            # # 2 m *. .4 4 7 7  .7 7 7 7 7 7 7 7  .9 9 9  .p  .J J =. .$.-.;.M                 ",
"            # >.o l ,. .i 2 7 7  .7 7 7 7 7 7 7 7  .9 9 9  .p  .J =.'. .).!.~.M                 ",
"            >.$ 3 o {.` 5 6 7 7 ` 7 7 7 7 7 7 7 7 ` 7 9 9 ` p ` J '.'.` ].^./.M M               ",
"            $ % 3 2 (.N 6 7 7 7 8 7 7 7  . . .7 7 `  .` 9 9 9 J J '.$.].]._./.M M               ",
"            % $ T o ` E 3 7 7 ` 7 7 7 7 7 7 7 7 ` 7 7 7 ` 9 ` J '.$.` ].:._.<.M M               ",
"            [.. 4 3  .G 7 7 7  .7 7 7 7 7 7 7 7  .7 7 7  .9  .J J $. .}.|.1.2.M M               ",
"            . . 5 3  .3.8 7 7  .7 7 7 7 7 7 7 7  .7 7 7  .9  .J J $. .4.|.5.6.M M               ",
"            . * 6 4  .7.4 7 7  .7 7 7 7 7 7 7 7  .7 7 7  .9  .J $.8. .4.|.5.9.M M               ",
"            * = 6 7 H `  .` 7 7 `  .` 7 7 7 7 7 7 `  .` 9 $.q `  .` 4.0.a.b.c.M M               ",
"            = - 7 8 d.8 9 9 7 7 7 7 7 7 7 7 7 7 7 7 7 9 9 q $.$.4.4.0.a.a.e.f.M M               ",
"            - ; 8 8 8 9 9 9 9 7 7 7 7 7 7 7 7 7 7 7 9 9 $.$.$.4.4.0.g.a.h.i.j.M M               ",
"            ; ; 8 8 9 9 0 a a 9 7 7 7 7 7 7 7 7 7 9 9 $.$.$.$.4.0.g.g.h.k.l.m.M M               ",
"            ; > 8 9 9 0 0 a b 9 9 9 9 9 9 7 7 7 9 9 $.$.$.4.4.0.g.g.n.k.k.o.p.M M               ",
"            > , 9 9 m q.q.n i T k m 2 l D D X 3 4 i 5 2 m o r.o s.H t.u.v.w.p.M M               ",
"            x.y.z.0 A.A.B.c c q I I J J =.'.'.$.$.$.8.8.4.0.g.a.h.k.k.v.C.D.E.M M               ",
"            F.G.H.I.{ J.K.L.M.M.N.[ O.P.Q.Q.R.S.T.T.U.V.V.V.W.X.Y.Z.`. +D..+++M M               ",
"              @+#+$+%+%+O.&+*+=+-+;+>+,+'+)+!+~+{+]+^+/+6.(+_+:+<+[+p.}+|+1+2+M M               ",
"                3+4+5+5+6+7+8+9+0+a+b+c+c+&.d+e+f+g+h+i+j+k+l+m+n+o+p+q+r+s+M M M               ",
"                    M M M t+u+v+w+x+y+z+A+B+C+D+E+F+G+H+z+I+J+M M M M M M M M M M               ",
"                        M K+L+1+1+M+M+1+1+N+1+O+P+Q+R+S+T+U+V+M M M M M M M M M                 ",
"                  W+X+Y+Z+`+ @.@+@@@#@5.5.$@%@&@*@=@-@f.;@>@,@'@)@!@~@M M M M                   ",
"                  {@]@^@/@(@_@:@<@^@^@[@}@;.5.e+h+|@j+j+1@2@3@4@5@6@7@M                         ",
"                            M M M M M M M M M M M M M M M M M M M M                             ",
"                                  M M M M M M M M M M M M M M                                   ",
"                                                                                                ",
"                                                                                                ",
"                                                                                                ",
"                                                                                                ",
"                                                                                                ",
"                                                                                                ",
"                                                                                                ",
"                                                                                                "};
